<?xml version="1.0" encoding="UTF-8" standalone="no"?>
<!-- Created with Inkscape (http://www.inkscape.org/) -->

<svg
   sodipodi:docname="seed.svg"
   inkscape:version="1.2.2 (b0a84865, 2022-12-01)"
   width="204.99998mm"
   height="205.00002mm"
   viewBox="0 0 204.99998 205.00002"
   version="1.1"
   id="svg5"
   xml:space="preserve"
   xmlns:inkscape="http://www.inkscape.org/namespaces/inkscape"
   xmlns:sodipodi="http://sodipodi.sourceforge.net/DTD/sodipodi-0.dtd"
   xmlns="http://www.w3.org/2000/svg"
   xmlns:svg="http://www.w3.org/2000/svg"><sodipodi:namedview
     id="namedview7"
     pagecolor="#ffffff"
     bordercolor="#000000"
     borderopacity="0.25"
     inkscape:showpageshadow="2"
     inkscape:pageopacity="0.0"
     inkscape:pagecheckerboard="0"
     inkscape:deskcolor="#d1d1d1"
     inkscape:document-units="mm"
     showgrid="false"
     inkscape:zoom="0.46340197"
     inkscape:cx="-102.5028"
     inkscape:cy="512.514"
     inkscape:window-width="1728"
     inkscape:window-height="1051"
     inkscape:window-x="0"
     inkscape:window-y="38"
     inkscape:window-maximized="0"
     inkscape:current-layer="g3891-9"
     showguides="false" /><defs
     id="defs2" /><g
     inkscape:groupmode="layer"
     id="layer2"
     inkscape:label="Layer 2"
     transform="translate(428.04515,43.733752)"><circle
       style="fill:#ffffff;fill-opacity:1;fill-rule:evenodd;stroke:none;stroke-width:0.101373;stroke-dasharray:none;stroke-opacity:1"
       id="path7569"
       cx="-325.54517"
       cy="58.766247"
       r="102.5" /><path
       style="fill:#33077b;fill-opacity:1;stroke-width:0.264583"
       d="m -327.72138,156.93714 c -3.10877,-1.61896 -3.47677,-4.97082 -0.7972,-7.26118 l 1.23765,-1.05788 0.0807,-86.655721 c 0.0711,-76.321449 0.0341,-86.655737 -0.31043,-86.655737 -0.65375,0 -2.06539,-1.369166 -2.58024,-2.502597 -0.67649,-1.489305 -0.6499,-3.726164 0.0581,-4.887531 1.61583,-2.650511 4.17323,-3.361362 6.75853,-1.878582 1.61867,0.928378 2.44013,2.143909 2.65077,3.922377 0.22668,1.913982 -0.24753,3.016038 -1.95115,4.534459 l -1.47309,1.312936 0.0254,86.646415 0.0254,86.646411 1.18597,1.18597 c 1.77068,1.77068 1.97121,4.00188 0.5152,5.73226 -1.43404,1.70426 -3.30751,2.02139 -5.42549,0.9184 z m 2.64082,-3.36739 c 0.0668,-0.58046 -0.057,-0.78097 -0.61253,-0.99218 -0.90094,-0.34254 -0.86142,-0.35131 -1.19097,0.26445 -0.43308,0.80923 0.11329,1.64081 1.00999,1.53721 0.5525,-0.0638 0.72836,-0.24322 0.79351,-0.80948 z m 0.79245,-181.713021 c 0.706,-0.657738 0.78172,-2.237623 0.14117,-2.94542 -0.60864,-0.672545 -2.24487,-0.644787 -2.8725,0.04873 -0.67171,0.742235 -0.61043,1.980832 0.13741,2.776863 0.75548,0.804172 1.80721,0.85276 2.59392,0.119829 z m -25.84095,153.233331 c -0.4128,-0.26157 -0.0267,-0.58512 2.34292,-1.96355 l 1.45521,-0.8465 0.0806,-1.56164 c 0.0552,-1.07021 -0.028,-1.63053 -0.26458,-1.78057 -0.18985,-0.12041 -1.32744,-0.22075 -2.52799,-0.22298 -2.16039,-0.004 -2.18281,0.003 -2.18281,0.66591 0,2.51343 -3.10594,4.99137 -5.65659,4.51287 -1.3072,-0.24523 -3.04278,-1.64416 -3.80404,-3.06616 -0.51323,-0.9587 -0.60915,-1.44072 -0.49243,-2.4745 0.3022,-2.67648 2.72221,-5.19842 4.98832,-5.19842 1.29413,0 2.89473,0.81313 3.77468,1.9176 0.67668,0.84932 0.71097,0.85941 2.63398,0.77431 2.24613,-0.0994 2.11794,0.08 2.39554,-3.35337 0.16756,-2.07235 0.1547,-2.13605 -0.61418,-3.0427 l -0.78532,-0.92605 -7.32987,-0.0782 c -4.997,-0.0533 -7.44012,0.0133 -7.67631,0.20929 -0.19054,0.15814 -0.42557,0.6028 -0.52229,0.98814 -0.0967,0.38534 -0.40074,1.01645 -0.67561,1.40248 -0.2273,0.41704 -3.50659,1.52288 -5.33422,-0.0941 -1.82763,-1.61698 -2.11434,-2.70744 -1.33229,-4.47539 0.69034,-1.56063 1.88204,-2.38232 3.67015,-2.53061 1.55023,-0.12856 2.82401,0.2659 3.36839,1.04311 0.32362,0.46203 0.8639,0.4942 8.65457,0.51542 l 8.30939,0.0226 1.07999,1.12612 c 0.594,0.61937 1.39767,1.76361 1.78594,2.54277 0.65958,1.32359 0.70595,1.65022 0.70595,4.97222 0,1.95556 0.1399,4.31484 0.31089,5.24285 0.34978,1.89829 0.31985,1.8894 2.59953,0.77261 l 1.19062,-0.58328 0.0861,-2.36301 c 0.0474,-1.29966 0.006,-4.03775 -0.0912,-6.08466 l -0.17733,-3.72164 -1.49628,-1.21149 c -0.82295,-0.66632 -2.62737,-2.29966 -4.00982,-3.62964 l -2.51354,-2.41816 -12.93498,0.016 -12.93498,0.016 -1.47041,1.34388 c -0.80873,0.73913 -1.74479,1.52365 -2.08013,1.74337 -0.532,0.34858 -0.60971,0.6165 -0.60971,2.102 0,1.87012 -0.35177,2.76802 -1.49773,3.82304 -2.29368,2.11164 -6.00861,1.56814 -7.49472,-1.09648 -0.89408,-1.60311 -0.95186,-4.59094 -0.11074,-5.72634 0.96383,-1.30103 2.59034,-2.26519 4.05948,-2.406361 1.14426,-0.10995 1.50452,-0.0225 2.42937,0.589511 l 1.08588,0.7186 0.96267,-0.87994 c 0.52947,-0.483971 1.51261,-1.397341 2.18477,-2.029721 l 1.22209,-1.14977 14.23366,0.0327 14.23365,0.0327 1.67706,1.5688 c 0.92238,0.86284 2.48026,2.177441 3.46195,2.921331 l 1.7849,1.35253 0.13229,-2.60122 c 0.10795,-2.122631 0.0593,-2.649891 -0.26458,-2.865791 -0.21828,-0.14552 -1.72962,-1.61968 -3.35852,-3.27591 -2.50433,-2.54633 -3.05588,-2.98608 -3.57188,-2.84788 -0.33562,0.0899 -3.29598,0.16506 -6.57856,0.16705 l -5.96834,0.004 -0.80456,1.14144 c -1.9544,2.77272 -5.79307,2.75474 -7.67371,-0.0359 -0.32108,-0.47645 -0.62157,-0.94987 -0.66776,-1.05203 -0.0462,-0.10217 -2.72403,-0.14776 -5.95077,-0.10132 l -5.86682,0.0845 -0.18269,1.10618 c -0.35567,2.15363 -3.31198,4.18861 -5.49109,3.77981 -3.88666,-0.72914 -5.21425,-6.18449 -2.15806,-8.86787 1.87721,-1.64821 4.43358,-1.59138 6.51161,0.14476 l 1.06538,0.89011 h 5.64187 c 3.10303,0 5.82215,0.0692 6.0425,0.15373 0.26555,0.1019 0.54039,-0.11652 0.81511,-0.64778 1.52132,-2.94191 5.93463,-3.23475 7.79344,-0.51713 l 0.69139,1.01084 7.36018,-0.0301 7.36018,-0.0301 2.4294,2.34538 c 1.33618,1.28997 2.51688,2.46445 2.62379,2.60997 0.10692,0.14552 0.19428,-0.92604 0.19414,-2.38125 l -2.5e-4,-2.64583 -2.04622,-2.12566 c -1.12542,-1.16911 -2.72497,-2.63751 -3.55455,-3.2631 l -1.50834,-1.13745 -3.38646,0.28844 c -3.04809,0.25962 -29.19919,0.80971 -38.63287,0.81264 -3.4698,0.001 -3.78259,0.0415 -4.03981,0.52212 -0.21496,0.40166 -0.1565,0.74915 0.25528,1.51744 1.07393,2.00372 0.38552,4.91368 -1.50325,6.35431 -0.69253,0.52822 -1.31723,0.73378 -2.48707,0.8184 -1.91236,0.13833 -2.85328,-0.22121 -4.0524,-1.5485 -1.75777,-1.94564 -1.52533,-5.28285 0.51067,-7.33187 1.09942,-1.10645 1.14663,-1.12448 2.94407,-1.12448 1.81864,0 1.82895,-0.004 2.3288,-0.93231 0.27615,-0.51276 0.74971,-0.98188 1.05236,-1.04247 0.30265,-0.0606 7.15824,-0.17295 15.23464,-0.24968 8.07641,-0.0767 16.70844,-0.25675 19.18229,-0.40005 2.47386,-0.1433 6.72303,-0.31711 9.4426,-0.38624 l 4.94468,-0.12569 2.41936,2.22968 c 1.33065,1.22632 2.52859,2.22967 2.66209,2.22967 0.27331,0 0.32982,-7.30653 0.073,-9.44401 -0.10912,-0.90837 -0.30952,-1.42965 -0.59116,-1.53772 -0.23434,-0.0899 -2.45097,-0.14009 -4.92584,-0.11148 -6.95512,0.0804 -25.0887,-0.0388 -25.54304,-0.16788 -0.22317,-0.0634 -0.63303,-0.50242 -0.91079,-0.97555 -0.68498,-1.16678 -5.432,-6.01537 -9.06844,-9.26245 -4.16105,-3.71555 -5.14114,-5.79441 -3.21723,-6.82405 0.63595,-0.34035 1.50423,0.12055 2.27597,1.20814 1.4738,2.07698 2.47631,3.12639 6.56377,6.87081 2.47385,2.26625 4.76674,4.57425 5.09531,5.12891 l 0.5974,1.00846 6.67864,0.1547 c 9.75776,0.22603 18.89774,0.11912 19.24189,-0.22506 0.20567,-0.20569 0.0555,-0.80148 -0.53201,-2.11098 -0.45021,-1.00343 -0.96016,-1.92007 -1.13323,-2.03699 -0.17307,-0.11691 -4.43829,-0.13246 -9.47826,-0.0345 l -9.1636,0.17804 -0.62599,-0.75073 c -1.44651,-1.73475 -12.89595,-13.41754 -18.91439,-19.2999 -3.57329,-3.4925 -8.82468,-8.70148 -11.66975,-11.57552 -2.84507,-2.87403 -5.25242,-5.22552 -5.34965,-5.22552 -0.0972,0 -0.55948,0.54294 -1.02723,1.20654 -3.09517,4.39114 -9.75646,1.04714 -8.92738,-4.481597 0.34898,-2.327155 3.33396,-4.470825 5.57737,-4.005407 0.36245,0.07519 0.93029,0.191899 1.26186,0.259342 0.5839,0.118768 39.49226,38.737692 40.36601,40.065732 l 0.41657,0.63314 6.22863,-0.14402 c 6.01457,-0.13908 10.44133,0.0867 11.79566,0.60162 0.40257,0.15304 0.65069,0.45666 0.65069,0.79623 0,0.30187 0.1663,0.87037 0.36957,1.26332 0.51127,0.98841 3.53529,3.82788 3.86177,3.62611 0.16015,-0.099 0.26657,-1.77235 0.26657,-4.1913 0,-4.5539 -0.0864,-4.81289 -1.93571,-5.80148 -1.07799,-0.57626 -1.32286,-0.59177 -9.34468,-0.59177 h -8.23769 l -2.97972,-3.16153 c -4.28364,-4.54576 -34.5396,-34.744656 -37.76988,-37.699387 l -2.72083,-2.488742 -0.92616,0.441658 c -1.48905,0.710078 -2.8093,0.57554 -4.10421,-0.418237 -1.55719,-1.195057 -2.13195,-2.060274 -2.28793,-3.444129 -0.17626,-1.5637246 0.30136,-2.9303846 1.48096,-4.2376716 2.13544,-2.36659 5.33385,-2.418517 7.35252,-0.119367 1.11001,1.264227 1.5129,2.589001 1.32907,4.3701616 l -0.15004,1.453774 21.15133,21.08562 c 11.63323,11.59709 21.15133,21.23816 21.15133,21.42459 0,0.26797 1.16009,0.31801 5.53817,0.23886 3.046,-0.0551 5.63031,-0.19223 5.7429,-0.30482 0.11259,-0.1126 -1.07143,-1.48003 -2.63115,-3.03873 l -2.83587,-2.83402 h -2.70036 -2.70037 l -0.98678,-1.48976 c -0.59512,-0.89847 -5.60719,-5.99167 -12.62787,-12.83229 l -11.64109,-11.342531 -0.0142,-2.976563 c -0.013,-2.723353 -0.0562,-2.976562 -0.50769,-2.976562 -0.74089,0 -1.83436,-0.974733 -2.45231,-2.186019 -0.42944,-0.841769 -0.5271,-1.433999 -0.44613,-2.705526 0.11768,-1.848247 0.69395,-2.7985236 2.28753,-3.7722036 1.76629,-1.079204 4.79297,-0.635923 6.18753,0.906216 1.26405,1.3978016 1.5876,3.7185466 0.76954,5.5195206 -0.46093,1.014735 -1.90765,2.502595 -2.43339,2.502595 -0.13436,0 -0.24429,0.954278 -0.24429,2.120617 v 2.120614 l 7.35785,7.338242 c 4.04681,4.03603 8.96753,8.88605 10.93492,10.77782 1.9674,1.89177 3.92489,4.00492 4.34997,4.69588 l 0.77289,1.2563 2.14974,5.2e-4 c 2.81222,5.3e-4 3.68387,0.19348 4.01085,0.88742 0.3708,0.78694 6.42672,7.08651 8.20487,8.53498 0.80154,0.65293 1.54318,1.09206 1.64809,0.97584 0.10491,-0.11622 0.26491,-1.59107 0.35555,-3.27745 l 0.16481,-3.06614 -4.47271,-4.56795 -4.47271,-4.56794 0.14848,-6.70445 0.14848,-6.704444 -0.67259,-0.168806 c -0.36992,-0.09285 -1.00545,-0.516245 -1.41228,-0.940885 -1.06335,-1.109895 -1.22669,-3.436892 -0.35066,-4.995577 1.46601,-2.608415 4.75004,-3.044314 6.7733,-0.899038 1.83894,1.949855 1.81384,4.251447 -0.0669,6.132182 l -1.15954,1.159541 -0.11895,5.973927 -0.11894,5.97393 3.58596,3.72298 c 3.74592,3.88905 5.18381,5.62555 4.95916,5.98905 -0.21316,0.34489 -0.10243,66.665181 0.1135,67.980791 0.2794,1.70237 -0.16739,2.40106 -2.44197,3.81874 -4.22861,2.63558 -9.69412,4.43627 -10.98409,3.61888 z m -4.71307,-5.12338 c 0.70033,-0.51209 0.8814,-2.21104 0.3037,-2.84939 -0.62751,-0.6934 -2.07646,-0.69027 -2.77271,0.006 -1.49023,1.49023 0.76605,4.08864 2.46901,2.8434 z m -12.23642,-10.37732 c 2.22122,-1.1149 0.58957,-3.82144 -0.74061,-3.82144 -2.53035,0 -2.02283,1.68836 -2.02283,2.1907 0,0.41784 1.11901,1.70718 1.49721,1.70718 0.11223,0 0.94545,0.0846 1.26623,-0.0764 z m -14.52894,-3.22272 c 1.17052,-1.0593 -0.0664,-3.51643 -1.57998,-3.13872 -1.63178,0.4072 -2.13956,1.82046 -1.06505,2.96424 0.68313,0.72715 1.94254,0.81023 2.64503,0.17448 z m -2.7969,-12.993771 c 0.41845,-0.27941 0.8995,-1.26733 0.8995,-1.84729 0,-0.59249 -1.3113,-1.91897 -1.89702,-1.91897 -0.74282,0 -1.80714,1.05462 -1.80714,1.79066 0,1.32282 1.84058,2.61933 2.80466,1.9756 z m 21.48409,-1.70251 c 0.41075,-0.41076 0.41075,-2.12925 0,-2.54 -0.94568,-0.94568 -3.33271,0.13531 -2.98034,1.34968 0.36574,1.26042 2.18403,1.98663 2.98034,1.19032 z m -33.30488,-2.74873 c 1.07844,-0.90745 1.12896,-2.2039 0.11691,-2.99999 -0.38343,-0.3016 -0.91057,-0.54837 -1.17142,-0.54837 -0.65143,0 -1.57102,1.23899 -1.57102,2.11667 0,0.80474 0.90126,2.11667 1.45411,2.11667 0.19655,0 0.72369,-0.30824 1.17142,-0.68498 z m -8.07301,-61.247811 c 0.83533,-0.99273 0.85881,-1.480349 0.10969,-2.27775 -0.8198,-0.872633 -2.42963,-0.853321 -3.01243,0.03614 -0.47567,0.725964 -0.35851,1.353658 0.44283,2.372386 0.72544,0.922255 1.61357,0.875045 2.45991,-0.130776 z m 58.30526,-2.772826 c 0.99946,-0.70005 0.53598,-2.50745 -0.72775,-2.83792 -1.40124,-0.366435 -2.24459,1.819034 -1.06922,2.770788 0.72362,0.585956 1.0394,0.597754 1.79697,0.06713 z M -379.99916,14.51602 c 0.58497,-0.502396 0.59858,-1.843987 0.0251,-2.477629 -0.67001,-0.740355 -2.05316,-0.631812 -2.71792,0.213286 -0.87455,1.111816 -0.5533,2.198261 0.79855,2.700612 0.7133,0.265062 1.21114,0.1504 1.89423,-0.436269 z m -23.74772,-2.865276 c 0.55859,-0.214349 0.93653,-1.194826 0.74415,-1.9304916 -0.17187,-0.657236 -1.34547,-1.340715 -2.30213,-1.340715 -1.2643,0 -1.95448,1.9512826 -1.04547,2.9557286 0.43848,0.484513 1.74909,0.643329 2.60345,0.315478 z m 98.88233,112.898106 c -1.96193,-0.48198 -4.38695,-1.63162 -7.46742,-3.54011 -2.43961,-1.51144 -2.70252,-1.77153 -2.52117,-2.49405 0.17955,-0.71542 0.40739,-26.894771 0.45276,-52.024151 l 0.0315,-17.42753 1.86406,-2.28392 c 1.02523,-1.25616 2.91112,-3.36403 4.19086,-4.68415 l 2.32681,-2.40023 0.0699,-6.13259 c 0.0606,-5.3108 0.0166,-6.13371 -0.32812,-6.140997 -1.03313,-0.02185 -2.37995,-2.00456 -2.38144,-3.505814 -0.001,-1.396605 0.5502,-2.567984 1.67374,-3.55446 1.60758,-1.411477 3.90717,-1.480962 5.47074,-0.165309 1.14332,0.962041 1.58594,1.96269 1.58479,3.582837 -0.001,1.68262 -0.60082,2.796688 -1.95612,3.634314 l -0.9533,0.589171 v 6.501968 6.50197 l -3.79388,3.72906 c -5.24698,5.15732 -5.05234,4.81404 -4.85174,8.55722 0.0899,1.67735 0.22805,3.11434 0.30703,3.19331 0.44479,0.4448 4.01585,-3.03151 9.44751,-9.19684 l 1.24121,-1.40887 2.33066,0.17207 c 2.51534,0.18571 2.72551,0.12596 3.28439,-0.93361 0.49109,-0.93104 5.25606,-5.84866 8.64432,-8.92124 1.49538,-1.35606 5.38605,-5.1474 8.64592,-8.425191 l 5.92704,-5.95962 0.0853,-2.086689 c 0.0717,-1.752375 0.0191,-2.086589 -0.32819,-2.086068 -0.51121,7.94e-4 -1.63148,-1.169982 -2.20211,-2.301343 -1.32909,-2.635144 0.49608,-6.2075686 3.4872,-6.8255536 1.33332,-0.275471 3.3064,0.317172 4.52302,1.358551 1.37191,1.1743046 1.78678,2.5181976 1.34539,4.3581156 -0.38058,1.586434 -1.05351,2.472425 -2.39937,3.159027 l -1.03332,0.527164 v 1.939514 c 0,1.066734 -0.12123,2.287265 -0.26939,2.712289 -0.23652,0.678476 -5.04876,5.484384 -19.81514,19.789034 -1.51488,1.46751 -3.50519,3.5732 -4.42291,4.67932 l -1.6686,2.01112 -2.4691,0.1473 -2.46909,0.14731 -2.0162,2.07491 c -2.51465,2.58788 -3.19548,3.45068 -2.87782,3.647 0.13694,0.0846 2.44256,0.23021 5.12361,0.32351 4.6324,0.16119 4.89964,0.14358 5.37807,-0.35442 14.17417,-14.069612 27.99437,-28.505986 42.4519,-42.287017 l -0.41018,-1.149456 c -0.62387,-1.7483026 -0.30677,-2.8103056 1.32688,-4.4439646 2.24387,-2.24386 4.32544,-2.461276 6.64051,-0.693582 3.56038,2.718546 2.64973,7.6456776 -1.69651,9.1791206 -0.97386,0.343595 -1.25931,0.34237 -2.44761,-0.0105 l -1.34518,-0.399479 -2.48329,2.279494 c -1.36581,1.253723 -7.64207,7.422276 -13.94726,13.707894 -6.30519,6.28562 -14.99996,14.92149 -19.32172,19.19082 l -7.85776,7.76243 -7.34691,-0.18158 -7.34692,-0.18158 -1.87936,1.21596 -1.87935,1.21595 -0.17117,2.02489 c -0.20652,2.44318 -0.22609,6.70753 -0.0308,6.70753 0.0772,0 0.97018,-0.49495 1.98437,-1.09989 1.34062,-0.79964 1.8447,-1.25106 1.84658,-1.65365 0.004,-0.85221 1.20148,-3.22964 1.72865,-3.43194 0.68095,-0.26131 13.18091,-0.77139 15.14677,-0.61809 l 1.66446,0.1298 2.83855,-2.81467 c 1.56121,-1.54807 10.63485,-10.56549 20.16366,-20.0387 18.7714,-18.661866 18.00585,-18.006898 20.77842,-17.776975 2.82663,0.234408 4.61649,2.299893 4.61649,5.327412 0,2.651343 -0.84719,3.873573 -3.49736,5.045603 -1.03286,0.45678 -1.63609,0.91516 -1.91555,1.45558 -0.5842,1.12971 -0.5245,1.29237 0.58426,1.5921 2.16591,0.58552 3.22518,2.17624 3.23534,4.85855 0.01,2.57012 -1.11404,3.99153 -3.61611,4.57386 -2.63896,0.61419 -4.73508,-0.22803 -5.80057,-2.33066 l -0.69398,-1.36951 -0.38746,0.73949 c -0.2131,0.40672 -0.45272,1.37184 -0.53249,2.14472 -0.1401,1.35742 -0.11764,1.4194 0.65983,1.82145 1.89312,0.97897 2.63899,3.24156 1.68502,5.1115 -0.69191,1.35625 -1.58782,1.92986 -3.01421,1.92986 -3.6751,0 -4.95605,-5.02379 -1.7203,-6.74687 0.68065,-0.36246 0.94344,-0.6542 0.83411,-0.92604 -0.0878,-0.21829 -0.22285,-1.35567 -0.30015,-2.52753 l -0.14055,-2.13065 0.84809,-0.71362 c 0.46645,-0.39249 1.06467,-0.71362 1.32938,-0.71362 0.2854,0 0.81351,-0.51773 1.29755,-1.27203 0.44894,-0.69962 1.12824,-1.56282 1.50956,-1.91823 0.38132,-0.35541 1.09353,-1.43808 1.5827,-2.40593 l 0.8894,-1.75973 -0.64198,-0.16113 c -0.38808,-0.0974 -0.91716,-0.6307 -1.33778,-1.34843 -0.47255,-0.80635 -0.80658,-1.12385 -1.04106,-0.98955 -0.18989,0.10875 -8.49755,8.30432 -18.46145,18.21237 l -18.11619,18.01463 -5.78934,0.17482 c -3.18413,0.0961 -7.17904,0.17511 -8.87757,0.17547 l -3.08824,5.3e-4 -0.92016,1.07499 c -1.66521,1.94543 -1.41358,2.74726 0.94491,3.01098 0.76408,0.0854 6.38985,0.10987 12.50172,0.0543 l 11.1125,-0.10106 5.97251,-5.9222 c 3.28488,-3.2572 6.20071,-6.31405 6.47962,-6.79298 0.74235,-1.27469 1.61202,-1.39638 2.5419,-0.35566 0.41177,0.46086 0.74868,1.0815 0.74868,1.37921 0,0.3577 -2.4445,2.95813 -7.20696,7.66666 l -7.20697,7.12538 -15.58746,0.0682 -15.58746,0.0682 -0.10446,5.68854 -0.10447,5.68854 2.5069,-2.48932 2.50691,-2.48933 9.47792,0.19652 c 5.21286,0.10809 10.78762,0.31405 12.38834,0.4577 1.60073,0.14365 8.41104,0.32237 15.13401,0.39714 l 12.22359,0.13595 0.92604,1.1301 c 0.8675,1.05867 1.02909,1.13945 2.5564,1.27794 2.92252,0.26501 4.48069,2.09969 4.48143,5.2767 2.6e-4,1.61576 -0.0751,1.86268 -0.83262,2.72549 -1.13125,1.28842 -2.13863,1.75711 -3.80895,1.77212 -1.72134,0.0155 -2.82207,-0.57068 -4.01925,-2.14029 -0.73166,-0.95915 -0.86377,-1.3534 -0.86377,-2.57754 0,-0.94035 0.19174,-1.82102 0.54888,-2.52108 l 0.54888,-1.0759 -0.57216,-0.60904 c -0.57162,-0.60846 -0.57968,-0.60906 -8.42024,-0.62312 -4.31644,-0.008 -14.60042,-0.15137 -22.85329,-0.31917 l -15.00523,-0.30509 -1.67682,1.19655 c -0.92225,0.65811 -2.46564,1.95165 -3.42975,2.87455 l -1.75293,1.67799 -0.0906,2.79145 -0.0906,2.79146 1.91139,-1.82866 c 3.53948,-3.38627 2.474,-3.09279 11.22851,-3.09279 7.29079,0 7.61038,-0.0211 7.76647,-0.51287 0.24922,-0.78523 1.85899,-2.07261 3.03056,-2.42362 0.82958,-0.24855 1.30969,-0.24175 2.28885,0.0324 1.28022,0.35844 3.02013,1.80794 3.02013,2.51604 0,0.33021 0.9439,0.38806 6.33199,0.38806 h 6.33198 l 0.55052,-0.77315 c 1.86881,-2.62449 6.60374,-1.60949 8.13938,1.74479 0.51218,1.11874 0.63808,1.74039 0.53597,2.64631 -0.34044,3.02037 -4.43075,5.28912 -7.07263,3.92295 -1.09346,-0.56545 -2.14154,-2.05525 -2.30542,-3.27703 -0.1056,-0.78734 -0.28188,-1.08309 -0.70955,-1.19043 -0.31297,-0.0785 -2.98362,-0.15671 -5.93477,-0.17368 l -5.36573,-0.0309 -0.78804,1.08785 c -0.43342,0.59832 -1.17139,1.32159 -1.63993,1.60727 -0.93313,0.56896 -2.87601,0.69439 -4.0198,0.25952 -0.81608,-0.31028 -1.95485,-1.47438 -2.28613,-2.337 l -0.236,-0.6145 -7.09285,0.0853 -7.09285,0.0853 -0.91005,0.76033 c -0.50053,0.41818 -1.93341,1.73729 -3.18418,2.93135 l -2.27414,2.17102 -0.15189,2.756501 c -0.0836,1.51608 -0.10846,2.79994 -0.0554,2.85302 0.0531,0.0531 0.90667,-0.62652 1.89686,-1.51023 0.9902,-0.88372 2.63064,-2.266301 3.64543,-3.072401 l 1.84508,-1.46564 h 14.52101 14.52101 l 0.50459,0.6415 c 0.27753,0.35282 1.1281,1.08725 1.89017,1.63208 0.76206,0.544831 1.53396,1.171291 1.71533,1.392141 0.29137,0.35479 0.45746,0.32979 1.42619,-0.21467 1.93967,-1.090151 4.92118,-0.63976 6.36989,0.96225 1.64643,1.82066 1.64643,5.46805 0,7.3222 -0.75944,0.85524 -2.46512,1.48164 -4.05147,1.48786 -2.17724,0.009 -2.99581,-0.37163 -3.92795,-1.82425 -0.67472,-1.05146 -0.80789,-1.52479 -0.80789,-2.87163 0,-1.35725 -0.0804,-1.63816 -0.50743,-1.7737 -0.27908,-0.0886 -1.28901,-0.98957 -2.24428,-2.00221 l -1.73685,-1.84115 h -13.25324 -13.25325 l -1.86761,1.65365 c -1.02718,0.9095 -2.80941,2.51684 -3.96052,3.57187 -1.1511,1.05503 -2.20694,1.91823 -2.34632,1.91823 -0.1541,0 -0.25341,2.37036 -0.25341,6.0487 v 6.04869 l 1.47875,0.56589 c 0.81331,0.31124 1.5695,0.56589 1.68042,0.56589 0.11092,0 0.26622,-2.18403 0.34512,-4.85339 0.10722,-3.62723 0.2459,-5.04766 0.54895,-5.62239 0.22302,-0.42296 1.25087,-1.60245 2.28411,-2.6211 l 1.87862,-1.85208 16.91953,-0.23591 1.619,2.78828 c 0,0 -12.37552,0.30484 -14.04229,0.39159 l -3.0305,0.15773 -1.38346,1.35959 -1.38345,1.35959 -0.084,2.11667 -0.084,2.11666 2.58862,0.0758 2.58861,0.0758 0.68582,-0.81504 c 1.07836,-1.28156 2.60047,-1.94066 4.02941,-1.7448 3.61626,0.49566 5.87038,4.70201 4.19713,7.83213 -1.39183,2.60368 -4.53897,3.66349 -6.6836,2.25072 -1.25503,-0.82674 -2.17739,-2.1423 -2.46182,-3.51129 l -0.20535,-0.98839 h -2.36941 -2.36941 v 1.85209 1.85208 l 1.32292,0.64231 c 0.7276,0.35327 2.03729,0.91261 2.91041,1.24298 l 1.5875,0.60068 -1.98437,-0.006 c -1.09141,-0.003 -2.85075,-0.21853 -3.90966,-0.47866 z m 10.75872,-4.44902 c 1.4448,-1.19956 0.71966,-3.24114 -1.15121,-3.24114 -1.479,0 -1.98223,1.65172 -0.91615,3.00703 0.63791,0.81096 1.2844,0.88417 2.06736,0.23411 z m 28.22026,-13.41557 c 0.74895,-0.74896 0.81555,-1.43686 0.24576,-2.53871 -0.32476,-0.628 -0.5764,-0.78061 -1.28724,-0.78061 -1.2142,0 -2.27784,0.87942 -2.27784,1.88331 0,0.9841 1.04797,2.08544 1.98437,2.08544 0.37703,0 0.97776,-0.29225 1.33495,-0.64943 z m 1.65787,-13.648381 c 1.05429,-0.98222 0.64993,-2.63917 -0.76438,-3.1322 -1.01329,-0.35323 -1.7466,-0.0258 -2.11555,0.94458 -0.73749,1.93976 1.40176,3.56475 2.87993,2.18762 z m -21.38136,-1.57719 c 0.9547,-0.95469 0.53699,-2.23219 -0.89717,-2.74391 -0.76472,-0.27286 -1.74866,0.50207 -1.74866,1.3772 0,0.87142 0.86339,1.89588 1.59781,1.89588 0.28537,0 0.75698,-0.23813 1.04802,-0.52917 z m 33.06388,-2.8886 c 0.55076,-1.32964 -0.65585,-3.04179 -1.92631,-2.73338 -1.4195,0.34459 -1.89112,1.5123 -1.07905,2.67169 0.85919,1.22668 2.50878,1.26053 3.00536,0.0617 z m 6.82933,-47.7941 c 1.26138,-0.8835 0.28934,-3.29229 -1.32856,-3.29229 -1.66743,0 -2.33338,1.616 -1.2392,3.00703 0.63104,0.80223 1.6656,0.91716 2.56776,0.28526 z m 1.55145,-12.698309 c 0.52644,-0.526438 0.63581,-0.831794 0.49753,-1.389062 -0.62679,-2.525914 -4.10677,-2.529081 -4.10677,-0.0037 0,1.904341 2.23515,2.766891 3.60924,1.392801 z m -58.90716,-3.558561 c 0.70785,-0.707845 0.66712,-1.473607 -0.12026,-2.260983 -0.75677,-0.756769 -1.13078,-0.802624 -1.93753,-0.237556 -0.64136,0.449228 -0.7887,1.629222 -0.31415,2.515933 0.36419,0.680495 1.68373,0.670817 2.37194,-0.01738 z m 34.70573,-9.962882 c 0.60289,-0.545605 0.62717,-1.875626 0.046,-2.517846 -0.5412,-0.598022 -2.01713,-0.636879 -2.58592,-0.06808 -0.22868,0.228674 -0.41578,0.764455 -0.41578,1.190625 0,1.527553 1.84644,2.399196 2.95573,1.395301 z m 23.17187,-2.905546 c 0.32743,-0.360156 0.59532,-0.923395 0.59532,-1.251643 0,-1.1278416 -1.7202,-2.3297956 -2.76212,-1.9299736 -0.64955,0.249256 -1.27692,1.446475 -1.10887,2.1160526 0.0859,0.342072 0.47458,0.94043 0.86384,1.329687 0.82098,0.820976 1.49219,0.747469 2.41183,-0.264123 z m -39.0408,99.259109 c -1.93928,-1.02082 -3.38266,-4.34048 -2.65307,-6.10186 1.23439,-2.98009 5.80759,-3.60005 8.0736,-1.09449 0.79078,0.87437 0.89374,3.79 0.19001,5.3809 -0.91211,2.06196 -3.53185,2.90965 -5.61054,1.81545 z m 2.38538,-4.26763 c 0,-0.7299 -0.57466,-1.59709 -1.05834,-1.59709 -0.48804,0 -1.05833,0.87022 -1.05833,1.61493 0,0.56939 0.16261,0.84478 0.59531,1.00817 0.86248,0.32567 1.52136,-0.11867 1.52136,-1.02601 z m -51.50974,9.69894 c -0.086,-0.13909 -0.1399,-16.452811 -0.11985,-36.252701 l 0.0364,-35.9998 -1.18435,-1.38428 c -1.23748,-1.44638 -3.83219,-4.01924 -4.94377,-4.90213 l -0.64806,-0.51473 0.0747,-7.16009 0.0747,-7.160087 -1.4954,-1.803828 c -0.82247,-0.992116 -2.38075,-2.637277 -3.46286,-3.655923 l -1.96745,-1.852083 -0.0281,-3.945413 c -0.0274,-3.8502166 -0.013,-3.9570046 0.59665,-4.4258866 0.76985,-0.592079 2.29211,-0.631804 3.07941,-0.08036 0.71731,0.502428 0.76957,1.175623 0.0913,1.175623 -0.90989,0 -1.06274,0.551981 -0.90145,3.2553616 l 0.15405,2.582121 1.26068,1.055502 c 0.69338,0.580528 2.29365,2.24159 3.55615,3.691247 l 2.29548,2.635745 -0.0771,7.126541 -0.0771,7.12654 3.27031,3.39524 3.27031,3.39524 -0.0451,35.98332 -0.0451,35.983331 -1.12125,0.99147 c -1.18853,1.05096 -1.39386,1.14344 -1.64319,0.74002 z m 13.71383,-1.04961 c -0.45707,-0.2787 -0.91413,-0.6412 -1.01571,-0.80555 -0.10157,-0.16434 -0.17171,-16.389701 -0.15587,-36.056341 l 0.0288,-35.75751 1.78065,-1.86957 c 0.97936,-1.02827 2.46527,-2.61421 3.30201,-3.52431 l 1.52135,-1.65473 v -7.03681 -7.036801 l 3.04311,-3.39254 c 1.67372,-1.865897 3.28106,-3.46806 3.57188,-3.560363 0.47964,-0.152233 0.52876,-0.400833 0.52876,-2.67617 0,-2.3357066 -0.0455,-2.5505356 -0.66145,-3.1213636 -0.76701,-0.710832 -0.82105,-1.132797 -0.24959,-1.948674 0.32911,-0.469863 0.66911,-0.588039 1.69182,-0.588039 1.05886,0 1.42769,0.138033 2.13546,0.799181 0.80038,0.747668 0.84421,0.879848 0.68006,2.050521 -0.0965,0.688237 -0.24707,2.4198766 -0.33458,3.8480886 l -0.15911,2.596751 -2.19083,1.829869 c -2.08718,1.743299 -3.45533,3.215309 -4.47773,4.817641 -0.40761,0.638821 -0.4752,1.599798 -0.54891,7.805209 l -0.0841,7.0767 -2.02915,1.71979 c -1.11604,0.94588 -2.19915,2.04721 -2.40691,2.4474 -0.20775,0.40018 -0.54191,0.7276 -0.74256,0.7276 -0.20065,0 -0.62267,0.53263 -0.93781,1.18362 l -0.57298,1.18362 0.03,35.72575 c 0.0286,34.140551 0.009,35.725701 -0.44281,35.724761 -0.26002,-5.3e-4 -0.84674,-0.22902 -1.3038,-0.50773 z m -84.62938,-35.449931 c -1.79397,-0.44579 -3.42743,-2.0282 -3.72367,-3.60729 -0.68164,-3.63349 1.5989,-6.47142 5.20039,-6.47142 1.79098,0 3.00087,0.6096 4.13418,2.083 l 0.8484,1.103 12.9781,0.0173 c 16.93227,0.0225 18.65238,0.18873 18.15553,1.75416 -0.39085,1.23148 -0.68593,1.25542 -16.50365,1.33876 l -14.89405,0.0785 -0.22731,0.5979 c -0.33014,0.86831 -1.55638,2.25113 -2.36142,2.66295 -0.93224,0.4769 -2.63091,0.68565 -3.6065,0.44321 z m 2.47137,-3.35854 c 0.79354,-0.55581 1.1507,-1.5266 0.85135,-2.31397 -0.23559,-0.61964 -1.7016,-1.49579 -2.50281,-1.49579 -0.78642,0 -1.48137,0.993 -1.48137,2.11667 0,1.83822 1.65142,2.73071 3.13283,1.69309 z m 151.87887,3.06783 c -1.04558,-0.5525 -2.26398,-1.86193 -2.63119,-2.82778 l -0.23201,-0.61022 -15.15394,-0.003 -15.15395,-0.003 -1.41029,-0.65654 c -1.17194,-0.54558 -1.35081,-0.71575 -1.05833,-1.00688 1.03184,-1.02711 9.42634,-1.57303 22.51094,-1.46398 8.48393,0.0707 10.78187,0.0195 10.78177,-0.24011 -2.1e-4,-0.52851 1.78453,-2.35603 2.65163,-2.71519 1.23847,-0.513 3.28804,-0.20014 4.56405,0.69667 1.43421,1.008 2.06392,2.14038 2.23414,4.01756 0.27628,3.0469 -1.83687,5.35865 -4.87275,5.33069 -0.72051,-0.007 -1.6853,-0.23119 -2.23007,-0.51906 z m 3.71908,-3.34139 c 0.73379,-0.93286 0.691,-1.52121 -0.17923,-2.46424 -1.03717,-1.12395 -1.90276,-1.25988 -2.78952,-0.43807 -1.43144,1.32662 -0.54715,3.59945 1.40046,3.59945 0.7867,0 1.14531,-0.15941 1.56829,-0.69714 z m -152.78852,-12.0931 c -1.1218,-1.1218 -1.36832,-2.0814 -0.89007,-3.46469 1.06578,-3.0826 6.06031,-2.08622 6.06031,1.20899 0,0.90791 -0.16789,1.25316 -1.02721,2.11248 -0.86848,0.86849 -1.19963,1.02721 -2.14312,1.02721 -0.91245,0 -1.2771,-0.16119 -1.99991,-0.88399 z m 143.11517,0.3765 c -1.58641,-0.96735 -2.0147,-2.17056 -1.40015,-3.93348 0.81419,-2.33558 4.85607,-2.29543 5.979,0.0594 0.56382,1.18233 0.29891,2.11489 -0.95774,3.37153 -1.17187,1.17187 -2.27288,1.32467 -3.62111,0.50256 z m -3.48054,-5.60239 c -1.71312,-0.5129 -2.47233,-3.14814 -1.40923,-4.8915 0.27331,-0.4482 0.94484,-1.02747 1.49228,-1.28724 0.84984,-0.40328 1.14922,-0.42622 2.04795,-0.15696 1.4811,0.44376 2.23299,1.29472 2.4556,2.77919 0.15245,1.01659 0.092,1.37535 -0.32588,1.9351 -1.15439,1.54619 -2.63281,2.10879 -4.26072,1.62141 z m 8.15097,-10e-4 c -1.18705,-0.25417 -2.91537,-2.05741 -2.91537,-3.04185 0,-1.51898 2.17324,-3.5472 3.80084,-3.5472 1.47823,0 3.07832,1.67572 3.07832,3.22382 0,2.3956 -1.71016,3.84747 -3.96379,3.36512 z m -151.47528,-0.54801 c -1.98238,-1.55934 -1.61823,-4.46712 0.71022,-5.67121 1.47578,-0.76315 3.27508,-0.20653 4.19166,1.29671 0.72273,1.18531 0.66174,2.35595 -0.17452,3.34979 -1.38515,1.64616 -3.38596,2.07986 -4.72736,1.02471 z m 6.98856,-0.4186 c -1.80557,-1.69466 -1.55586,-3.77279 0.61217,-5.09465 3.08612,-1.88164 6.38293,1.47849 4.47677,4.56274 -0.66485,1.07575 -1.54023,1.5241 -2.97569,1.5241 -0.8561,0 -1.25635,-0.18792 -2.11325,-0.99219 z m 4.90573,-5.60925 c -0.29562,-0.11985 -0.98023,-0.70796 -1.52135,-1.30691 -1.16367,-1.28803 -1.28541,-2.41415 -0.44801,-4.14398 0.74052,-1.52971 1.4369,-2.09091 2.59414,-2.09056 2.14682,5.3e-4 3.27388,1.03091 3.61289,3.30261 0.4364,2.92424 -1.84682,5.20808 -4.23767,4.23884 z m 127.95987,-0.0832 c -1.05604,-0.54272 -1.69077,-1.64957 -1.81669,-3.16793 -0.14924,-1.79973 0.4127,-3.18924 1.57683,-3.89899 1.12201,-0.68407 1.68642,-0.67332 3.11528,0.0594 1.41145,0.72376 2.12616,1.9607 2.12616,3.67974 0,2.5336 -2.85314,4.43195 -5.00158,3.32782 z m -142.90462,-0.42014 c -1.92802,-1.02517 -2.09305,-4.04211 -0.28747,-5.25559 1.01353,-0.68117 3.53786,-0.83738 4.28328,-0.26507 1.02935,0.79032 1.38646,3.09548 0.67746,4.37315 -0.85732,1.54495 -2.95644,2.06038 -4.67327,1.14751 z m 7.77964,0.30825 c -0.30738,-0.0604 -0.90269,-0.46876 -1.32292,-0.90738 -0.66888,-0.69817 -0.76405,-0.99529 -0.76405,-2.38537 0,-1.54849 0.0308,-1.61696 1.24137,-2.76075 0.68275,-0.64509 1.12121,-1.17289 0.97436,-1.17289 -0.77385,0 1.86999,-4.59941 3.0615,-5.326 0.80922,-0.49348 2.1385,-0.62743 3.25558,-0.32806 0.89943,0.24103 0.73547,0.50796 -0.87959,1.432 -1.44301,0.82561 -3.1278,2.70886 -3.43584,3.84058 -0.10976,0.40323 0.16491,0.85768 1.05834,1.75112 1.11411,1.11411 1.20657,1.30906 1.20657,2.544 0,1.63251 -0.85254,2.80996 -2.33211,3.2209 -0.99798,0.27718 -1.09799,0.28163 -2.06321,0.0919 z m 149.74859,-0.32554 c -1.15286,-0.70309 -1.68453,-1.55815 -1.68453,-2.70927 0,-2.05562 1.04655,-3.13335 3.04271,-3.13335 1.91964,0 3.83646,1.67813 3.83646,3.35872 0,0.7355 -0.22078,1.15765 -1.02721,1.96407 -0.88021,0.88021 -1.19258,1.02707 -2.18281,1.02622 -0.67035,-5.3e-4 -1.50372,-0.21326 -1.98462,-0.5065 z m -157.34318,-7.53512 c -2.04293,-0.75642 -3.09134,-2.40886 -3.09134,-4.87242 0,-1.87485 0.66952,-3.04489 2.25678,-3.94389 1.25882,-0.71296 3.7075,-0.81674 4.88644,-0.20709 1.05249,0.54426 2.02288,1.889 2.41141,3.34167 0.28943,1.08213 0.25907,1.4202 -0.27739,3.08857 -0.33131,1.03039 -0.83657,2.08537 -1.12279,2.34439 -0.68602,0.62085 -3.66314,0.76712 -5.06311,0.24877 z m 3.06023,-3.63976 c 1.01585,-1.20053 0.12848,-2.86982 -1.52557,-2.86982 -1.70914,0 -2.22187,1.90704 -0.85507,3.1804 0.69816,0.65044 1.67532,0.52296 2.38064,-0.31058 z m 46.54136,-0.98689 c -0.29336,-0.18592 -0.33993,-2.92701 -0.26458,-15.573422 l 0.0914,-15.3477846 -0.71113,-0.408056 c -1.73065,-0.993079 -2.39832,-4.331687 -1.29771,-6.489054 1.68761,-3.30798 6.35814,-3.647827 8.36916,-0.608976 0.90693,1.370462 1.05995,2.575314 0.5499,4.329811 -0.45325,1.559139 -1.93716,3.212428 -3.15843,3.518947 -0.62067,0.155776 -0.62897,0.204656 -0.79962,4.7030686 -0.0948,2.500112 -0.17279,9.397455 -0.17324,15.327426 l -8.1e-4,10.78177 -1.12448,-0.004 c -0.61846,-0.002 -1.28469,-0.10558 -1.4805,-0.22968 z m 3.1545,-34.1417466 c 1.34722,-1.347221 0.80538,-3.195352 -0.93683,-3.195352 -1.09749,0 -1.68452,0.46948 -1.88904,1.510755 -0.13992,0.712433 -0.0372,0.978914 0.63755,1.653646 0.9961,0.996095 1.22001,0.999262 2.18832,0.03095 z m 55.18937,33.9345066 c -0.097,-0.097 -0.17639,-6.94605 -0.17639,-15.22009 V 9.1601904 l -0.7276,-0.275659 c -1.85434,-0.702532 -2.97657,-2.619666 -2.97657,-5.084963 0,-1.445385 0.11124,-1.844188 0.76679,-2.749148 0.78079,-1.07785902 1.97733,-1.72721602 3.81946,-2.072799 1.31643,-0.246964 3.50024,0.81822398 4.39449,2.143482 0.76713,1.13687 1.03288,3.52896 0.55343,4.981686 -0.37756,1.144035 -1.70307,2.541331 -2.41077,2.541331 -0.49623,0 -0.50881,0.382765 -0.50881,15.4781236 v 15.478125 h -1.27882 c -0.70335,0 -1.3582,-0.0794 -1.45521,-0.17639 z m 2.25017,-33.8635746 c 0.67031,-0.606623 0.64489,-2.244783 -0.0445,-2.868689 -0.59062,-0.534495 -1.95417,-0.597913 -2.53268,-0.11779 -0.57012,0.473157 -0.47453,2.163218 0.16094,2.845305 0.64024,0.687224 1.74176,0.751581 2.41625,0.141174 z m -25.26844,25.8013146 c -0.0913,-1.07129 -0.184,-4.76666 -0.20592,-8.211924 l -0.0399,-6.264116 1.6881,-1.926008 c 0.92846,-1.059302 2.36106,-2.645762 3.18357,-3.525464 l 1.49547,-1.5994616 -0.14312,-3.473701 c -0.0787,-1.910538 -0.0722,-3.756006 0.0144,-4.101042 0.0866,-0.345037 0.55946,-0.843698 1.05069,-1.108135 0.49124,-0.26443802 1.69183,-1.36262602 2.66798,-2.440419 l 1.77482,-1.959621 -0.45762,-0.698423 c -1.05576,-1.611294 -0.13071,-5.108437 1.64089,-6.2033464 0.49637,-0.306771 1.53916,-0.623478 2.31732,-0.703792 3.82235,-0.394499 6.46527,3.0673154 5.09033,6.6675374 -0.81478,2.133489 -3.46641,3.80355698 -5.55108,3.49622798 -0.72632,-0.107077 -1.04309,0.110498 -2.99504,2.05712402 l -2.18281,2.176868 v 3.443017 c 0,1.89366 -0.0707,3.7963126 -0.15702,4.2281156 -0.1096,0.548026 -0.85384,1.416888 -2.46463,2.877343 -1.26919,1.150737 -2.68444,2.57706 -3.14501,3.169608 l -0.83739,1.077365 -0.0893,7.186665 c -0.0491,3.952662 -0.16069,7.258092 -0.248,7.345402 -0.0873,0.0873 -0.62719,0.22157 -1.19975,0.29837 l -1.041,0.13963 -0.16607,-1.94782 z m 16.75646,-35.9467646 c 1.13744,-1.137433 0.30058,-3.175 -1.30401,-3.175 -1.00304,0 -1.6064,0.621803 -1.6064,1.655493 0,1.68344 1.80441,2.62551 2.91041,1.519507 z m -64.82291,35.0027246 c -0.80221,-0.29325 -1.5839,-1.24467 -1.74998,-2.12994 -0.22912,-1.221331 0.30305,-2.881414 1.08871,-3.396197 1.26542,-0.829136 3.26648,0.150042 3.83653,1.877332 0.36557,1.107678 0.0468,1.919735 -1.17462,2.992135 -0.95574,0.83915 -1.24327,0.93353 -2.00064,0.65667 z m 85.16881,-0.67653 c -1.33266,-0.88764 -1.9293,-2.264848 -1.56587,-3.614511 0.35139,-1.304978 1.0286,-1.710119 2.56841,-1.53656 2.0653,0.232788 3.00401,1.611389 2.29825,3.375258 -0.38375,0.959063 -1.69318,2.374613 -2.19661,2.374613 -0.11284,0 -0.60972,-0.26946 -1.10418,-0.5988 z m -49.6107,-2.88664 c -0.16675,-0.269812 -0.56555,-5.467337 -0.62582,-8.156223 -0.017,-0.758933 -0.37776,-1.336368 -1.99915,-3.199886 -1.08812,-1.250617 -2.42454,-2.500773 -2.96983,-2.778125 -0.54529,-0.277355 -1.04122,-0.53422 -1.10207,-0.570815 -0.0609,-0.03659 -0.12872,-1.898891 -0.15082,-4.1384396 l -0.0402,-4.071906 -1.45579,-1.682392 c -0.80069,-0.925317 -1.7232,-2.06934602 -2.05001,-2.54228902 -0.54017,-0.78170298 -0.71888,-0.86029298 -1.96525,-0.86424798 -2.72241,-0.0086 -4.67834,-2.01975 -4.67834,-4.810302 0,-2.452047 1.8524,-4.7838444 4.06375,-5.1154574 1.3558,-0.203316 1.98278,-0.05453 3.54347,0.840875 2.06684,1.1858024 2.7724,3.9268744 1.64838,6.4039254 l -0.52236,1.151146 1.55304,1.69486498 c 0.85417,0.932178 1.86575,1.940849 2.24796,2.24149502 l 0.69493,0.546629 v 4.02141 4.021409 l 2.93233,3.0369906 c 1.61278,1.670343 3.0515,3.334647 3.19715,3.698449 0.28721,0.717399 0.0717,6.075698 -0.33522,8.334374 -0.29893,1.659295 -1.45897,2.791508 -1.98615,1.938515 z m -10.75342,-31.8611446 c 0.73621,-0.823944 0.74411,-1.169961 0.0469,-2.05627 -0.64373,-0.818364 -1.91756,-0.941964 -2.67194,-0.259257 -1.12855,1.021321 -0.0658,3.471103 1.36121,3.137873 0.36766,-0.08585 0.93636,-0.455908 1.26379,-0.822346 z m -28.64115,29.2342106 c -0.98252,-0.30181 -1.54196,-0.727475 -1.94116,-1.476999 -0.46314,-0.869593 -0.37774,-1.445268 0.37979,-2.560082 1.26265,-1.858153 3.31639,-2.148499 4.87811,-0.689634 0.66399,0.620257 0.7843,0.932527 0.7843,2.035585 0,1.428742 -0.52972,2.16785 -1.93545,2.700467 -0.85773,0.324985 -1.08034,0.324025 -2.16559,-0.0093 z m 5.9296,-0.311954 c -1.68321,-1.134317 -1.71369,-3.323963 -0.0679,-4.876178 1.15632,-1.090549 1.96552,-1.299022 3.20746,-0.826334 1.31639,0.501018 2.17559,1.819034 2.17559,3.337335 0,1.017648 -0.1344,1.313156 -0.94488,2.077538 -0.80135,0.755774 -1.13702,0.891137 -2.20983,0.891137 -0.87875,0 -1.53836,-0.184253 -2.16048,-0.603498 z m 79.00165,0.232418 c -1.32598,-0.585301 -1.85209,-1.383623 -1.85209,-2.810381 0,-1.381929 0.63057,-2.329418 2.03739,-3.061385 1.25732,-0.654187 2.0366,-0.468421 3.28909,0.784074 1.08928,1.089279 1.15582,1.241034 1.15582,2.636295 0,1.413272 -0.0448,1.510946 -0.98746,2.151481 -1.10112,0.748228 -2.38723,0.854117 -3.64275,0.299916 z m 6.46755,-0.299855 c -1.89747,-1.396992 -1.33465,-4.027099 1.13693,-5.312942 0.97826,-0.508939 1.88027,-0.235622 2.8437,0.861677 0.64921,0.739401 0.79505,1.138123 0.78819,2.154845 -0.005,0.68616 -0.15345,1.431621 -0.33072,1.65658 -1.13846,1.444694 -2.9836,1.710706 -4.4381,0.63984 z m -2.19683,-5.652048 c -2.27225,-1.49806 -2.30119,-4.089294 -0.0676,-6.05042 1.14649,-1.006633 2.34452,-1.115298 3.99895,-0.362717 1.34461,0.611651 1.65597,0.999053 1.86784,2.323983 0.15308,0.957289 0.0771,1.1785 -0.716,2.083785 -1.05602,1.205447 -3.023,2.508215 -3.78333,2.505776 -0.29893,-0.0011 -0.88387,-0.226142 -1.29987,-0.500407 z m -87.74676,0.05233 c -0.21828,-0.07891 -0.83261,-0.559425 -1.36518,-1.067822 -0.53257,-0.508397 -1.09811,-0.844132 -1.25677,-0.746077 -0.19583,0.121034 -0.28847,-0.325054 -0.28847,-1.38915 0,-1.758659 0.51077,-2.664968 1.90954,-3.388296 1.88236,-0.973407 4.77056,-0.158856 5.59468,1.57785 0.81474,1.716942 0.37496,4.595326 -0.7692,5.034378 -0.51307,0.196884 -3.26372,0.181864 -3.8246,-0.02088 z m 54.77384,-21.9200116 -0.56728,-12.6375684 c 0,0 -0.66082,-0.322471 -1.34715,-0.642723 -1.82309,-0.850675 -2.6878,-2.269895 -2.6878,-4.411395 0,-1.221049 0.16861,-1.992349 0.64492,-2.950289 0.85687,-1.723279 1.97112,-2.361097 4.12786,-2.362883 1.38471,-0.0011 1.80402,0.118989 2.77813,0.795941 2.92987,2.036098 3.08385,6.23534 0.31468,8.582109 -0.76114,0.645036 -0.62262,1.008669 -0.62262,1.008669 0,0 -0.67598,12.6535824 -0.46678,12.6389384 -0.005,0.04589 -2.17396,-0.0208 -2.17396,-0.020799 z m 1.46214,-16.9087654 c 0.70484,-0.704837 0.87439,-2.014969 0.3187,-2.462618 -0.1819,-0.146537 -0.71436,-0.34844 -1.18324,-0.448675 -0.70042,-0.14973 -0.97186,-0.06291 -1.52136,0.486587 -0.82078,0.820783 -0.85244,1.653964 -0.0935,2.461774 0.7439,0.791842 1.6643,0.778081 2.47945,-0.03707 z m -20.99657,15.4500102 c 0,0 -1.17391,-10.2593602 -1.52607,-11.0906922 -2.65122,-0.940319 -2.92191,-3.492718 -2.88153,-4.412931 0.0755,-1.720948 0.0656,-1.985526 0.80471,-2.910417 2.89459,-3.62195 8.24076,-1.976516 8.99975,2.769923 0.19874,1.242872 -0.36666,3.134483 -1.28922,4.321207 -0.3834,0.493182 -1.26989,-0.134691 -1.60823,0.962092 -1.18309,3.83516 0.0525,10.2501563 -0.37919,10.2383917 -0.23436,-0.0064 -2.12022,0.1224265 -2.12022,0.1224265 z m 1.63428,-14.0260312 c 0.92029,-0.7239 0.97416,-2.170671 0.10183,-2.734903 -1.11336,-0.72014 -1.95673,-0.779264 -2.55676,-0.179239 -0.74293,0.742934 -0.70241,1.900129 0.0967,2.762419 0.78097,0.842682 1.42695,0.884243 2.3582,0.151723 z"
       id="path15468"
       sodipodi:nodetypes="cscssssssscccssccsssssssssssssccssssssssssscsssczsssscsssssccccsscccsssssssscsscccsscssssccsssccsssscsssscccssscsscscsssssssssssscsssssssssssscssssccssssssssscssssssssccscsssssscssssscccsscssssssssscsssccsssscccccssssscccssssssssssssssssssssssssssssssssssssssssssssssssssssscssscssscssccscsscscccsscscsssscccssssscsssscccssssccsssccssscccccsssssscssssssscsscsssssssscssssscssssccccscscssssscccccccssscssccscsscscscsscccssssssscssssscccsssscccssccssscccsssssscsssscccsssscssssscscccccccccssssscccccssccccssssssssssssssssssssssssscsscssccscsssscsssccssscsssssssssssssscsscccsscssssscsscccccccsssscscsscccssssssssscssccssssccsscsssccsscssccscssscscccssssssscccsssssssssssssssssscssscscsssccssssssssssscscsscsscsccscsssccsssssssssscccsssscccssssssssscsscscssssscsccccssssssscsssssssscssscsssscsssscsssscsssssscscsscssscccsssssssssssssssssssssscsscsssscsscccsssssscsssscsssssscsssssccsssssssssscssssssccsssssssssssssssscssccccssssccssccsssacccssssss"
       inkscape:export-filename="path15468.svg"
       inkscape:export-xdpi="96"
       inkscape:export-ydpi="96" /></g></svg>
