<?xml version="1.0" encoding="UTF-8" standalone="no"?>
<!-- Created with Inkscape (http://www.inkscape.org/) -->

<svg
  width="186.01968mm"
  height="41.229092mm"
  viewBox="0 0 186.01968 41.229092"
  version="1.1"
  id="svg5"
  xml:space="preserve"
  xmlns="http://www.w3.org/2000/svg"
  xmlns:svg="http://www.w3.org/2000/svg"><defs
     id="defs2" /><g
     id="layer2"
     transform="translate(-9.9933178,-7.388963)"><g
       id="g12190"><g
         id="g1097"><path
           style="fill:#07BEB8;fill-opacity:1;stroke-width:0.0567249"
           d="m 27.786468,48.479889 c -0.666501,-0.347094 -0.745398,-1.06571 -0.170915,-1.556748 l 0.265345,-0.226808 0.0173,-18.578446 c 0.01524,-16.362833 0.0073,-18.5784455 -0.06656,-18.5784455 -0.14016,0 -0.442807,-0.2935407 -0.553188,-0.5365353 -0.145034,-0.3193058 -0.139334,-0.7988723 0.01246,-1.0478626 0.346424,-0.5682497 0.894715,-0.7206492 1.448987,-0.4027542 0.347033,0.1990382 0.523148,0.4596395 0.568308,0.8409352 0.0486,0.4103464 -0.05307,0.6466213 -0.418314,0.9721548 l -0.315822,0.2814843 0.0055,18.5764503 0.0055,18.57645 0.254265,0.254262 c 0.379622,0.379625 0.422615,0.857976 0.110455,1.22896 -0.307448,0.365388 -0.709108,0.433373 -1.16319,0.196903 z m 0.566175,-0.721948 c 0.01432,-0.124444 -0.01222,-0.167435 -0.131322,-0.212719 -0.193156,-0.07341 -0.184683,-0.07536 -0.255337,0.05671 -0.09285,0.173496 0.02429,0.351781 0.216536,0.329571 0.118452,-0.01364 0.156156,-0.05216 0.170123,-0.173552 z M 28.52254,8.799812 c 0.151362,-0.1410206 0.167596,-0.4797336 0.03027,-0.6314834 -0.130489,-0.1441948 -0.481287,-0.1382361 -0.615847,0.010488 -0.144011,0.1591285 -0.130872,0.4246768 0.02946,0.5953419 0.161971,0.1724101 0.387455,0.1828237 0.55612,0.025709 z m -5.540139,32.852264 c -0.08851,-0.05606 -0.0058,-0.125446 0.502307,-0.420973 l 0.311989,-0.181487 0.01728,-0.334806 c 0.01183,-0.229444 -0.006,-0.349572 -0.05673,-0.381741 -0.0407,-0.0258 -0.284595,-0.04733 -0.541985,-0.0478 -0.463175,-8.54e-4 -0.467982,6.4e-4 -0.467982,0.142766 0,0.538864 -0.665894,1.070119 -1.212737,0.967532 -0.280255,-0.05253 -0.652352,-0.352496 -0.815562,-0.657369 -0.110034,-0.205535 -0.130599,-0.308873 -0.105574,-0.530512 0.06479,-0.573818 0.583625,-1.114511 1.069465,-1.114511 0.277453,0 0.620612,0.174331 0.809267,0.411126 0.145077,0.18209 0.152427,0.184253 0.564709,0.166005 0.481556,-0.02135 0.454073,0.01717 0.513589,-0.718941 0.03593,-0.444297 0.03316,-0.45796 -0.131676,-0.652338 l -0.168368,-0.198537 -1.571479,-0.0168 c -1.071325,-0.01142 -1.595115,0.0028 -1.645753,0.04483 -0.04085,0.03388 -0.09124,0.129233 -0.111975,0.211856 -0.02073,0.0826 -0.08592,0.217916 -0.144847,0.300678 -0.04874,0.08938 -0.75179,0.326499 -1.143622,-0.02014 -0.391833,-0.346667 -0.453302,-0.580454 -0.285635,-0.959495 0.148005,-0.334582 0.403497,-0.510751 0.786856,-0.54254 0.33236,-0.02756 0.605451,0.05699 0.722162,0.223634 0.06938,0.09906 0.185215,0.105956 1.855486,0.110503 l 1.781481,0.0046 0.231543,0.241435 c 0.12735,0.132788 0.299652,0.378103 0.382894,0.545149 0.14141,0.283767 0.151352,0.353795 0.151352,1.066017 0,0.419256 0.03,0.92507 0.06665,1.124034 0.07499,0.406977 0.06857,0.405075 0.557323,0.165644 l 0.255262,-0.125057 0.01846,-0.506612 c 0.01016,-0.278644 0.0013,-0.86567 -0.01956,-1.30451 l -0.03802,-0.797898 -0.320793,-0.259738 c -0.176436,-0.142858 -0.563292,-0.493033 -0.85968,-0.778175 l -0.538887,-0.518436 -2.773179,0.0037 -2.773179,0.0037 -0.315246,0.28812 c -0.173387,0.15847 -0.374072,0.326666 -0.445967,0.373769 -0.114058,0.07471 -0.130718,0.132175 -0.130718,0.450655 0,0.400944 -0.07542,0.593448 -0.321104,0.819635 -0.49175,0.452724 -1.288209,0.336197 -1.606822,-0.235078 -0.191685,-0.343697 -0.204072,-0.984267 -0.02374,-1.227689 0.20664,-0.278931 0.555354,-0.485645 0.870328,-0.515912 0.245322,-0.02357 0.32256,-0.0046 0.520842,0.126393 l 0.232806,0.154061 0.20639,-0.188652 c 0.113515,-0.103765 0.324294,-0.299583 0.468401,-0.435165 l 0.262008,-0.246503 3.051608,0.0074 3.051605,0.0074 0.359552,0.336336 c 0.197752,0.184996 0.531751,0.466833 0.742219,0.626323 l 0.382673,0.289968 0.02836,-0.557688 c 0.02315,-0.455073 0.01272,-0.568119 -0.05673,-0.614405 -0.0468,-0.03119 -0.37082,-0.347243 -0.720046,-0.702328 -0.536913,-0.545919 -0.655162,-0.640199 -0.765789,-0.610573 -0.07196,0.0193 -0.706637,0.03536 -1.410402,0.03583 l -1.279574,8.54e-4 -0.172493,0.244721 c -0.419011,0.594451 -1.241998,0.590599 -1.645195,-0.0074 -0.06884,-0.10215 -0.133261,-0.203651 -0.143164,-0.225555 -0.0099,-0.0219 -0.584015,-0.03165 -1.275807,-0.02172 l -1.257811,0.0181 -0.03917,0.237157 c -0.07625,0.461728 -0.710067,0.898015 -1.177255,0.810362 -0.833276,-0.156316 -1.117903,-1.325912 -0.462675,-1.901206 0.402462,-0.353369 0.950532,-0.341192 1.396049,0.031 l 0.228411,0.190834 h 1.209582 c 0.66527,0 1.248232,0.01485 1.295473,0.03295 0.05693,0.02181 0.115856,-0.02497 0.174755,-0.138885 0.326162,-0.630723 1.272347,-0.693511 1.670864,-0.110866 l 0.14823,0.216719 1.577977,-0.0065 1.577976,-0.0065 0.520848,0.502835 c 0.286469,0.276565 0.539604,0.528359 0.562524,0.559562 0.02293,0.03119 0.04165,-0.198537 0.04162,-0.510529 l -5.3e-5,-0.567247 -0.438697,-0.455732 c -0.241267,-0.250552 -0.584201,-0.565375 -0.762058,-0.69949 l -0.323378,-0.243868 -0.726036,0.06181 c -0.653492,0.05569 -6.260124,0.173598 -8.282645,0.174229 -0.743903,2.14e-4 -0.810964,0.0093 -0.86611,0.111933 -0.04609,0.08613 -0.03355,0.160614 0.05473,0.32533 0.230243,0.429586 0.08265,1.053468 -0.322288,1.362323 -0.148474,0.113251 -0.282406,0.157319 -0.533212,0.175464 -0.409997,0.02961 -0.611725,-0.04743 -0.868809,-0.331994 -0.376855,-0.417131 -0.32702,-1.13261 0.109484,-1.571905 0.235709,-0.237212 0.24583,-0.241083 0.63119,-0.241083 0.389905,0 0.392116,-8.53e-4 0.49928,-0.199873 0.05921,-0.109937 0.160734,-0.21051 0.22562,-0.223504 0.06489,-0.01299 1.534682,-0.03712 3.266211,-0.05355 1.731532,-0.01643 3.582186,-0.05504 4.112563,-0.08576 0.530381,-0.03072 1.441376,-0.06803 2.024434,-0.08279 l 1.060109,-0.02692 0.518695,0.478035 c 0.285283,0.262912 0.542115,0.478026 0.570736,0.478026 0.05859,0 0.07071,-1.566476 0.01565,-2.024742 -0.0234,-0.194741 -0.06636,-0.306506 -0.126742,-0.329673 -0.05024,-0.0193 -0.525473,-0.03007 -1.056069,-0.02394 -1.491134,0.01726 -5.37886,-0.0084 -5.476268,-0.03601 -0.04785,-0.01355 -0.135717,-0.107719 -0.195267,-0.209155 -0.146856,-0.25015 -1.164586,-1.28966 -1.944217,-1.985806 -0.892103,-0.796599 -1.102229,-1.242288 -0.689754,-1.463035 0.136344,-0.07295 0.322498,0.0258 0.487954,0.259014 0.315974,0.44529 0.530905,0.670279 1.407231,1.473059 0.530377,0.485868 1.021959,0.980693 1.092403,1.099606 l 0.128079,0.216208 1.431858,0.03313 c 2.092002,0.04845 4.051557,0.02552 4.12534,-0.04826 0.0441,-0.04409 0.0119,-0.171835 -0.114059,-0.452586 -0.09652,-0.215123 -0.205853,-0.411645 -0.242958,-0.436714 -0.03711,-0.02506 -0.951541,-0.0284 -2.032079,-0.0074 l -1.964619,0.03815 -0.134208,-0.160957 C 19.536564,28.3671 17.081876,25.862384 15.79156,24.601246 c -0.76609,-0.748772 -1.891956,-1.865539 -2.501921,-2.481718 -0.609965,-0.616178 -1.126085,-1.120322 -1.14693,-1.120322 -0.02084,0 -0.119949,0.116407 -0.220232,0.25868 -0.663585,0.941434 -2.0917242,0.224497 -1.913975,-0.960831 0.07482,-0.498927 0.714781,-0.958511 1.195754,-0.858728 0.0777,0.01615 0.199448,0.04112 0.270535,0.0556 0.125184,0.02543 8.466892,8.305123 8.654219,8.589846 l 0.08931,0.13574 1.335379,-0.03091 c 1.289486,-0.02979 2.238555,0.01856 2.528915,0.128982 0.08631,0.03276 0.139504,0.09791 0.139504,0.170712 0,0.06469 0.03565,0.186601 0.07924,0.270848 0.109613,0.211902 0.757944,0.820674 0.82794,0.777414 0.03433,-0.02126 0.05715,-0.379987 0.05715,-0.898591 0,-0.976332 -0.01853,-1.031852 -0.415005,-1.243801 -0.231113,-0.123544 -0.283612,-0.126876 -2.00344,-0.126876 h -1.766105 l -0.638834,-0.677835 c -0.918385,-0.974587 -7.405074,-7.449041 -8.097625,-8.08252 l -0.583329,-0.533565 -0.198562,0.09469 c -0.319244,0.152242 -0.602297,0.123395 -0.879918,-0.08966 -0.333851,-0.256211 -0.457076,-0.441708 -0.490518,-0.738404 -0.03779,-0.335251 0.06461,-0.628254 0.317509,-0.908522 0.457825,-0.507383 1.143544,-0.51852 1.576335,-0.02562 0.237978,0.271042 0.324355,0.55507 0.284944,0.936941 l -0.03217,0.311676 4.534713,4.520622 c 2.494092,2.486349 4.534712,4.55333 4.534712,4.593305 0,0.05745 0.248716,0.06822 1.187349,0.05123 0.653044,-0.01179 1.207103,-0.04121 1.231242,-0.06534 0.02414,-0.02413 -0.229708,-0.31731 -0.564102,-0.651485 l -0.607993,-0.607593 h -0.57894 -0.578943 L 21.20621,25.075813 c -0.12759,-0.193758 -1.202146,-1.285706 -2.707336,-2.752296 l -2.495776,-2.431765 -0.0031,-0.638157 c -0.0028,-0.58387 -0.01205,-0.638157 -0.108846,-0.638157 -0.158842,0 -0.393275,-0.208978 -0.52576,-0.46867 -0.09207,-0.180466 -0.113007,-0.307435 -0.09565,-0.580046 0.02523,-0.396257 0.148779,-0.599983 0.490432,-0.808739 0.378683,-0.231374 1.027583,-0.136333 1.326569,0.194287 0.271004,0.299685 0.340371,0.797238 0.164985,1.183351 -0.09882,0.217555 -0.408989,0.536545 -0.521704,0.536545 -0.02881,0 -0.05237,0.204588 -0.05237,0.454646 v 0.454646 l 1.577477,1.57327 c 0.867611,0.865298 1.922582,1.905114 2.344378,2.310699 0.421798,0.405585 0.841472,0.858625 0.932607,1.006765 l 0.165702,0.269344 0.460891,1.11e-4 c 0.602923,1.12e-4 0.789798,0.04149 0.859901,0.190259 0.0795,0.168716 1.377849,1.519298 1.759073,1.829842 0.171845,0.139991 0.330848,0.234131 0.35334,0.20922 0.02249,-0.02487 0.05679,-0.341117 0.07623,-0.702671 l 0.03533,-0.65736 -0.958922,-0.979338 -0.958921,-0.979339 0.03184,-1.437391 0.03183,-1.437391 -0.144198,-0.0362 c -0.07931,-0.01986 -0.215563,-0.11068 -0.302784,-0.20172 -0.227976,-0.237955 -0.262995,-0.736855 -0.07518,-1.07102 0.314303,-0.559228 1.018378,-0.652682 1.452153,-0.192754 0.394257,0.41804 0.388875,0.911491 -0.01434,1.3147 l -0.248598,0.248601 -0.0255,1.280778 -0.0255,1.280768 0.768807,0.798185 c 0.803102,0.833789 1.111378,1.206082 1.063214,1.284017 -0.0457,0.07397 -0.02196,14.292595 0.02434,14.574655 0.0599,0.364979 -0.03589,0.51477 -0.523544,0.818716 -0.906588,0.565047 -2.078359,0.951104 -2.354922,0.775863 z m -1.010453,-1.098427 c 0.150146,-0.109789 0.188966,-0.474025 0.06511,-0.610888 -0.134535,-0.148659 -0.44518,-0.147991 -0.594452,9.28e-4 -0.319496,0.319491 0.164236,0.876576 0.529341,0.609607 z m -2.623411,-2.224828 c 0.476216,-0.239032 0.126399,-0.819292 -0.158783,-0.819292 -0.542491,0 -0.433682,0.361972 -0.433682,0.469673 0,0.08957 0.23991,0.366009 0.320993,0.366009 0.02406,0 0.202698,0.0181 0.271472,-0.01643 z M 16.233623,37.63789 c 0.250952,-0.227105 -0.01424,-0.753904 -0.338738,-0.672924 -0.349843,0.08734 -0.458708,0.390298 -0.228341,0.63552 0.14646,0.15589 0.41647,0.173701 0.567079,0.0374 z m -0.599638,-2.785783 c 0.08971,-0.05986 0.192847,-0.271711 0.192847,-0.396044 0,-0.127033 -0.281134,-0.411422 -0.406709,-0.411422 -0.159256,0 -0.38744,0.226111 -0.38744,0.383913 0,0.2836 0.394609,0.561567 0.601302,0.423553 z M 20.240039,34.4871 c 0.08806,-0.08808 0.08806,-0.456502 0,-0.544563 -0.202747,-0.202742 -0.714512,0.02905 -0.638966,0.289364 0.07841,0.270226 0.468242,0.42592 0.638966,0.255199 z m -7.140357,-0.589309 c 0.23121,-0.194555 0.242041,-0.472503 0.02506,-0.643178 -0.08221,-0.06469 -0.195221,-0.117566 -0.251146,-0.117566 -0.139662,0 -0.336816,0.265631 -0.336816,0.453792 0,0.17254 0.193224,0.453802 0.311751,0.453802 0.04214,0 0.155155,-0.06608 0.251146,-0.14685 z M 11.36888,20.766644 c 0.179089,-0.21284 0.184123,-0.317375 0.02352,-0.488337 -0.175761,-0.187084 -0.520899,-0.182945 -0.645847,0.0074 -0.10198,0.155638 -0.07686,0.290218 0.09494,0.508626 0.15553,0.19772 0.34594,0.187604 0.52739,-0.02803 z m 12.500282,-0.594479 c 0.214277,-0.150088 0.11491,-0.537584 -0.156026,-0.608428 -0.300416,-0.07852 -0.481226,0.389983 -0.229234,0.594033 0.15514,0.125632 0.222841,0.128156 0.38526,0.01439 z m -7.290723,-2.226471 c 0.125413,-0.10771 0.128331,-0.395339 0.0054,-0.531189 -0.143646,-0.15873 -0.440185,-0.135461 -0.582705,0.04576 -0.187498,0.238363 -0.118624,0.471287 0.171204,0.578988 0.152927,0.0568 0.259661,0.0323 0.406111,-0.09353 z M 11.487076,17.3314 c 0.119759,-0.04594 0.200787,-0.256165 0.159542,-0.413892 -0.03685,-0.140909 -0.28846,-0.287443 -0.493562,-0.287443 -0.271058,0 -0.419029,0.418347 -0.224142,0.633692 0.09401,0.103877 0.374993,0.13793 0.558162,0.06766 z M 32.68683,41.536041 c -0.420626,-0.103329 -0.940535,-0.349813 -1.600968,-0.758981 -0.523038,-0.324039 -0.579404,-0.379801 -0.540524,-0.534707 0.03849,-0.153383 0.08734,-5.766066 0.09707,-11.153648 l 0.0068,-3.736358 0.399644,-0.489656 c 0.219803,-0.269316 0.624125,-0.721224 0.898494,-1.004249 l 0.498854,-0.514594 0.01499,-1.314794 c 0.01299,-1.138597 0.0035,-1.315026 -0.07034,-1.316585 -0.221496,-0.0046 -0.510246,-0.429772 -0.510565,-0.75163 -2.15e-4,-0.299416 0.117959,-0.55056 0.358839,-0.762054 0.344655,-0.302608 0.837673,-0.317505 1.172893,-0.03545 0.24512,0.206249 0.340015,0.420787 0.339768,0.768132 -2.15e-4,0.360747 -0.128812,0.599593 -0.41938,0.779177 l -0.204381,0.12631 v 1.393982 1.393982 l -0.813384,0.799485 c -1.12492,1.105704 -1.08319,1.032103 -1.040183,1.834623 0.01928,0.359605 0.04889,0.667689 0.06582,0.684619 0.09536,0.09537 0.860973,-0.649935 2.025487,-1.971745 l 0.266108,-0.302052 0.499678,0.03685 c 0.539273,0.03982 0.584332,0.02701 0.704152,-0.200162 0.105287,-0.199604 1.126867,-1.253917 1.853289,-1.91266 0.320599,-0.290728 1.154735,-1.103569 1.853631,-1.806305 l 1.27072,-1.277706 0.01828,-0.447369 c 0.01537,-0.375699 0.0041,-0.447351 -0.07036,-0.44724 -0.109599,1.67e-4 -0.349778,-0.250837 -0.472118,-0.493395 -0.284948,-0.564955 0.106357,-1.330869 0.747634,-1.46336 0.285856,-0.05903 0.708872,0.06803 0.969707,0.291266 0.294129,0.251766 0.383075,0.539886 0.288444,0.934352 -0.08159,0.340124 -0.225866,0.530076 -0.51441,0.677278 l -0.221538,0.113019 v 0.415822 c 0,0.228701 -0.02599,0.49037 -0.05776,0.581494 -0.05071,0.145466 -1.082422,1.175824 -4.248242,4.242646 -0.32478,0.314628 -0.751491,0.766072 -0.948244,1.003219 l -0.357738,0.431174 -0.52936,0.03156 -0.529356,0.03156 -0.432261,0.444845 c -0.539125,0.554829 -0.685091,0.739806 -0.616986,0.781897 0.02936,0.0181 0.523669,0.04938 1.09847,0.06933 0.993156,0.03453 1.050451,0.03081 1.153024,-0.07601 3.038853,-3.016433 6.001817,-6.111507 9.101421,-9.066071 l -0.08794,-0.246438 c -0.133755,-0.374827 -0.06577,-0.602507 0.284474,-0.952757 0.481071,-0.48107 0.927348,-0.527681 1.423684,-0.148696 0.763322,0.58284 0.568085,1.639185 -0.363721,1.967939 -0.20879,0.07369 -0.269988,0.07342 -0.524753,-0.0019 l -0.288398,-0.08567 -0.532402,0.488709 c -0.292821,0.268787 -1.638412,1.591294 -2.990204,2.938888 -1.351794,1.347594 -3.215898,3.199071 -4.142456,4.114387 l -1.684655,1.664218 -1.575131,-0.03889 -1.575134,-0.03889 -0.402923,0.260694 -0.40292,0.260694 -0.0367,0.434125 c -0.04428,0.523802 -0.04847,1.43805 -0.0066,1.43805 0.01655,0 0.208001,-0.106113 0.425436,-0.235801 0.287421,-0.171445 0.395493,-0.268222 0.395896,-0.354538 8.57e-4,-0.182703 0.25759,-0.692415 0.370612,-0.735787 0.145991,-0.05606 2.825904,-0.165375 3.247372,-0.13251 l 0.35685,0.02784 0.608567,-0.603444 c 0.334713,-0.331901 2.280046,-2.265175 4.322963,-4.296172 4.024469,-4.000988 3.860341,-3.86057 4.454762,-3.811277 0.606012,0.05031 0.989747,0.493089 0.989747,1.14217 0,0.568426 -0.181632,0.830466 -0.749812,1.081739 -0.221439,0.09794 -0.350768,0.196208 -0.410682,0.312067 -0.125249,0.242205 -0.112449,0.277075 0.125261,0.341339 0.464358,0.12553 0.691459,0.466573 0.693637,1.041644 0.0021,0.551015 -0.238843,0.855758 -0.775272,0.980601 -0.565776,0.131684 -1.01517,-0.04891 -1.243605,-0.499679 l -0.148785,-0.293606 -0.08307,0.158535 c -0.04568,0.08724 -0.09706,0.294116 -0.114163,0.459816 -0.03003,0.291025 -0.02522,0.304316 0.141464,0.390512 0.405873,0.209878 0.565783,0.694967 0.361258,1.095875 -0.148341,0.290765 -0.340419,0.413743 -0.646228,0.413743 -0.787918,0 -1.062546,-1.077071 -0.368822,-1.446487 0.145928,-0.07768 0.202268,-0.14025 0.178828,-0.198537 -0.01882,-0.04678 -0.04778,-0.290645 -0.06435,-0.541881 l -0.03014,-0.456799 0.181825,-0.152994 c 0.100004,-0.08418 0.228259,-0.153003 0.285011,-0.153003 0.06119,0 0.174412,-0.110995 0.278186,-0.272713 0.09625,-0.149996 0.241889,-0.335056 0.32364,-0.411256 0.08175,-0.0762 0.234447,-0.308317 0.339321,-0.515819 l 0.190683,-0.377268 -0.137637,-0.03453 c -0.0832,-0.02088 -0.196633,-0.135219 -0.286812,-0.289095 -0.101311,-0.172883 -0.172925,-0.240952 -0.223196,-0.212152 -0.04071,0.0233 -1.821822,1.780391 -3.95802,3.90461 l -3.883997,3.862223 -1.241199,0.0375 c -0.682657,0.0206 -1.53914,0.03759 -1.903294,0.03759 l -0.6621,1.11e-4 -0.197276,0.230475 c -0.357011,0.417084 -0.303063,0.588993 0.202582,0.645535 0.163814,0.01828 1.369945,0.02357 2.680291,0.0116 l 2.38245,-0.02163 1.280469,-1.269686 c 0.704257,-0.698319 1.329393,-1.353692 1.389189,-1.456372 0.159156,-0.273289 0.345607,-0.299378 0.544968,-0.0762 0.08828,0.0988 0.160512,0.231866 0.160512,0.295684 0,0.07666 -0.524085,0.634212 -1.545127,1.643687 l -1.545129,1.527643 -3.341854,0.01457 -3.341853,0.01457 -0.0224,1.219586 -0.02239,1.219595 0.537463,-0.533695 0.537466,-0.533695 2.032006,0.04214 c 1.117605,0.0232 2.312798,0.06729 2.655983,0.09813 0.343187,0.03081 1.803274,0.06914 3.244636,0.08511 l 2.620662,0.02914 0.198537,0.24228 c 0.185987,0.226975 0.22063,0.244294 0.548076,0.273985 0.62657,0.0568 0.960632,0.450163 0.96079,1.131292 5.6e-5,0.346407 -0.0161,0.399348 -0.178508,0.584325 -0.242533,0.276231 -0.458509,0.37672 -0.816615,0.379931 -0.369044,0.0037 -0.605034,-0.122346 -0.861702,-0.458859 -0.156863,-0.205638 -0.185187,-0.290163 -0.185187,-0.552611 0,-0.2016 0.04111,-0.39041 0.117676,-0.540498 l 0.117677,-0.230669 -0.122667,-0.13058 c -0.122552,-0.130449 -0.12428,-0.130579 -1.805248,-0.133586 -0.925417,-0.0019 -3.130238,-0.03248 -4.899602,-0.0684 l -3.217026,-0.06543 -0.3595,0.256527 c -0.197724,0.141095 -0.528618,0.418421 -0.735317,0.61629 l -0.375817,0.359745 -0.01943,0.598469 -0.01943,0.598479 0.40979,-0.392062 c 0.758843,-0.725995 0.53041,-0.663068 2.407322,-0.663068 1.5631,0 1.631617,-0.0046 1.665082,-0.109956 0.05343,-0.168354 0.398556,-0.444353 0.649733,-0.519615 0.177857,-0.05327 0.28079,-0.05179 0.490716,0.0065 0.274471,0.07685 0.647496,0.387607 0.647496,0.539422 0,0.07082 0.202367,0.08316 1.357539,0.08316 h 1.357537 l 0.118028,-0.165755 c 0.400661,-0.562681 1.415801,-0.345071 1.745033,0.374066 0.109807,0.239857 0.1368,0.373128 0.114908,0.567358 -0.07299,0.64755 -0.949925,1.133947 -1.516327,0.841056 -0.234431,-0.121233 -0.459133,-0.44064 -0.494269,-0.702578 -0.02264,-0.1688 -0.06043,-0.23221 -0.152122,-0.255218 -0.0671,-0.0168 -0.63967,-0.0336 -1.272378,-0.03722 l -1.150379,-0.0065 -0.16895,0.23323 c -0.09292,0.128278 -0.251139,0.283341 -0.351591,0.344588 -0.200057,0.121985 -0.616599,0.148873 -0.86182,0.0556 -0.174962,-0.06655 -0.419108,-0.316103 -0.490132,-0.501043 l -0.05059,-0.131739 -1.520663,0.01828 -1.520662,0.01828 -0.195109,0.163018 c -0.10731,0.08966 -0.414511,0.372459 -0.682669,0.628457 l -0.487561,0.465459 -0.03257,0.59097 c -0.01792,0.325042 -0.02325,0.600289 -0.01188,0.611668 0.01139,0.01142 0.194384,-0.134319 0.406675,-0.323779 0.212292,-0.189469 0.563993,-0.485878 0.781557,-0.658706 l 0.395573,-0.314219 h 3.113214 3.113214 l 0.10818,0.137531 c 0.0595,0.07564 0.241858,0.2331 0.405241,0.349906 0.163381,0.116805 0.328872,0.251116 0.367756,0.298469 0.06246,0.07611 0.09808,0.07072 0.305766,-0.04603 0.415853,-0.233723 1.055071,-0.13716 1.365665,0.206296 0.352984,0.390345 0.352984,1.172316 0,1.569835 -0.162819,0.183362 -0.528506,0.317654 -0.86861,0.31899 -0.466787,0.0019 -0.642283,-0.07963 -0.842127,-0.391106 -0.144657,-0.225425 -0.173207,-0.326907 -0.173207,-0.615658 0,-0.290989 -0.01723,-0.351215 -0.10879,-0.380275 -0.05984,-0.01903 -0.276356,-0.212153 -0.481159,-0.429262 l -0.37237,-0.394726 h -2.84143 -2.841414 l -0.400404,0.354529 c -0.220221,0.194991 -0.60232,0.539598 -0.84911,0.765784 -0.246789,0.226195 -0.473154,0.411256 -0.503036,0.411256 -0.03304,0 -0.05433,0.50819 -0.05433,1.296806 v 1.296807 l 0.317034,0.121316 c 0.17437,0.06673 0.336491,0.121326 0.360272,0.121326 0.02378,0 0.05708,-0.468244 0.07399,-1.04054 0.02299,-0.777655 0.05272,-1.082185 0.117692,-1.205404 0.04782,-0.09068 0.268178,-0.343548 0.489698,-0.561947 l 0.402764,-0.397074 3.627441,-0.05058 0.347104,0.597792 c 0,0 -2.653234,0.06534 -3.010579,0.084 l -0.64972,0.03379 -0.296605,0.29148 -0.296604,0.291489 -0.018,0.453802 -0.01801,0.453801 0.554984,0.01624 0.554982,0.01624 0.147036,-0.17474 c 0.231192,-0.274764 0.557524,-0.416072 0.863879,-0.374074 0.775303,0.106262 1.258573,1.008082 0.899838,1.67916 -0.298399,0.558207 -0.973126,0.785423 -1.432921,0.482536 -0.269071,-0.177245 -0.466819,-0.459296 -0.527799,-0.752799 l -0.04402,-0.211902 h -0.507986 -0.507987 v 0.397074 0.397074 l 0.283625,0.137707 c 0.155993,0.07573 0.436782,0.19566 0.623974,0.266485 l 0.34035,0.128788 -0.425437,-9.28e-4 c -0.23399,-6.4e-4 -0.611182,-0.04687 -0.838206,-0.102624 z m 2.306601,-0.953843 c 0.309756,-0.257176 0.154291,-0.694874 -0.246812,-0.694874 -0.317088,0 -0.424977,0.35411 -0.196417,0.644681 0.136764,0.173867 0.275368,0.189562 0.443229,0.05021 z m 6.050247,-2.876211 c 0.160571,-0.160576 0.17485,-0.308056 0.05269,-0.544285 -0.06963,-0.134644 -0.123576,-0.167361 -0.275975,-0.167361 -0.260318,0 -0.488355,0.188541 -0.488355,0.403775 0,0.210984 0.224678,0.447101 0.425436,0.447101 0.08083,0 0.209626,-0.06265 0.286204,-0.13923 z m 0.355437,-2.926126 c 0.226033,-0.210584 0.139341,-0.565827 -0.163877,-0.671523 -0.217244,-0.07574 -0.374461,-0.0056 -0.453562,0.20251 -0.158113,0.415868 0.300529,0.764262 0.617439,0.469013 z m -4.584029,-0.338146 c 0.204681,-0.204672 0.115128,-0.478565 -0.192348,-0.58827 -0.163951,-0.05847 -0.374901,0.107636 -0.374901,0.295258 0,0.186824 0.185105,0.406467 0.34256,0.406467 0.06118,0 0.162292,-0.05105 0.224689,-0.113455 z m 7.088688,-0.619297 c 0.11808,-0.285067 -0.140609,-0.652135 -0.412989,-0.586015 -0.304331,0.07388 -0.405443,0.324225 -0.23134,0.572789 0.184204,0.262996 0.537866,0.270254 0.644329,0.01327 z M 45.36794,23.575667 c 0.270432,-0.189422 0.06204,-0.705845 -0.284835,-0.705845 -0.357486,0 -0.500262,0.346454 -0.265676,0.644681 0.135291,0.171993 0.357093,0.196635 0.550511,0.06116 z m 0.332622,-2.722438 c 0.112865,-0.11287 0.136313,-0.178331 0.106666,-0.29781 -0.13438,-0.541538 -0.880465,-0.542215 -0.880465,-8.54e-4 0,0.408277 0.479202,0.593198 0.773799,0.298609 z M 33.071235,20.090295 c 0.15176,-0.15176 0.143027,-0.315937 -0.02578,-0.484737 -0.162247,-0.162247 -0.242432,-0.172085 -0.415395,-0.05095 -0.137503,0.09631 -0.169092,0.349294 -0.06735,0.539403 0.07808,0.145893 0.360981,0.143814 0.508529,-0.0037 z m 7.440692,-2.135979 c 0.129255,-0.116972 0.134461,-0.402123 0.0099,-0.539811 -0.116029,-0.128213 -0.43246,-0.136547 -0.554404,-0.01457 -0.04902,0.04901 -0.08914,0.16389 -0.08914,0.255264 0,0.327492 0.395865,0.514372 0.63369,0.299138 z m 4.967903,-0.622935 c 0.0702,-0.07722 0.127633,-0.197971 0.127633,-0.268342 0,-0.241797 -0.3688,-0.499493 -0.592181,-0.413771 -0.139259,0.05346 -0.273763,0.310108 -0.237735,0.453662 0.01841,0.07332 0.101747,0.201628 0.185201,0.285076 0.176013,0.176012 0.319917,0.160261 0.517082,-0.05662 z m -8.370103,21.28053 c -0.415769,-0.218854 -0.725221,-0.930566 -0.568801,-1.308195 0.264645,-0.638918 1.24511,-0.771827 1.730928,-0.234651 0.169539,0.187455 0.191613,0.812553 0.04074,1.153633 -0.195551,0.44207 -0.757206,0.623808 -1.202864,0.389213 z m 0.51141,-0.914945 c 0,-0.156493 -0.123203,-0.342407 -0.2269,-0.342407 -0.104634,0 -0.2269,0.186564 -0.2269,0.346231 0,0.122068 0.03486,0.181116 0.12763,0.216144 0.184911,0.06979 0.32617,-0.02543 0.32617,-0.219968 z m -11.043365,2.07939 c -0.01844,-0.02979 -0.03,-3.52738 -0.0257,-7.772356 l 0.0078,-7.718134 -0.253916,-0.29678 c -0.265309,-0.31009 -0.8216,-0.861698 -1.059915,-1.050981 l -0.13894,-0.110355 0.01602,-1.535077 0.01601,-1.535077 -0.320604,-0.386735 c -0.176332,-0.2127 -0.510417,-0.565409 -0.742415,-0.783808 l -0.421809,-0.397074 -0.006,-0.845873 c -0.0058,-0.825464 -0.0028,-0.848351 0.127918,-0.948877 0.165051,-0.126941 0.491414,-0.135452 0.660206,-0.01726 0.153787,0.10771 0.164991,0.252044 0.01957,0.252044 -0.195075,0 -0.227845,0.118337 -0.193266,0.697929 l 0.03303,0.553594 0.270281,0.226288 c 0.148657,0.124463 0.491745,0.480588 0.762417,0.791382 l 0.492138,0.565085 -0.01653,1.527884 -0.01653,1.527884 0.701134,0.727926 0.701133,0.727916 -0.0097,7.714598 -0.0097,7.714598 -0.240389,0.212571 c -0.254813,0.225313 -0.298834,0.245138 -0.352289,0.158655 z m 2.94016,-0.225035 c -0.09799,-0.05977 -0.195984,-0.137466 -0.217763,-0.172698 -0.02177,-0.03527 -0.03681,-3.513857 -0.03341,-7.730256 l 0.0062,-7.666186 0.381761,-0.400824 c 0.209968,-0.22046 0.528538,-0.560472 0.70793,-0.755594 l 0.326167,-0.35476 V 20.96235 19.453706 l 0.652441,-0.727341 c 0.358835,-0.400034 0.703439,-0.743527 0.765789,-0.763315 0.102831,-0.03267 0.113363,-0.08594 0.113363,-0.573753 0,-0.500766 -0.0098,-0.54682 -0.141811,-0.669203 -0.164442,-0.1524 -0.176028,-0.242865 -0.05351,-0.417781 0.07056,-0.100739 0.143452,-0.126078 0.362716,-0.126078 0.227012,0 0.306087,0.02961 0.457829,0.171343 0.171597,0.160298 0.180992,0.188634 0.1458,0.43962 -0.02069,0.147554 -0.05297,0.518808 -0.07173,0.825008 l -0.03411,0.556723 -0.4697,0.392312 c -0.447479,0.37375 -0.740802,0.689343 -0.959998,1.032873 -0.08739,0.136956 -0.10188,0.342983 -0.117683,1.673388 l -0.01803,1.517201 -0.435038,0.36871 c -0.239272,0.202788 -0.471484,0.438914 -0.516027,0.524711 -0.04454,0.08576 -0.116181,0.155991 -0.159199,0.155991 -0.04302,0 -0.133497,0.114189 -0.201061,0.253761 l -0.122843,0.253761 0.0064,7.659374 c 0.0061,7.31952 0.0019,7.659365 -0.09494,7.659171 -0.05574,-1.21e-4 -0.181536,-0.0491 -0.279527,-0.108861 z m -18.14401,-7.600243 c -0.384616,-0.09557 -0.73482,-0.434831 -0.798332,-0.773377 -0.146139,-0.779 0.342795,-1.387429 1.114931,-1.387429 0.383976,0 0.643369,0.130691 0.886343,0.446581 l 0.181891,0.23647 2.782423,0.0037 c 3.630172,0.0046 3.998953,0.04047 3.892432,0.37608 -0.08379,0.264026 -0.147059,0.269158 -3.538279,0.287025 l -3.193191,0.0168 -0.04874,0.128185 c -0.07078,0.186165 -0.333678,0.482629 -0.506273,0.570922 -0.199867,0.102244 -0.564051,0.146998 -0.773211,0.09502 z m 0.529846,-0.720046 c 0.17013,-0.119163 0.246703,-0.327297 0.182524,-0.496106 -0.05051,-0.132844 -0.364812,-0.320688 -0.536587,-0.320688 -0.168603,0 -0.317596,0.212895 -0.317596,0.453801 0,0.394104 0.354054,0.585448 0.671659,0.362993 z m 32.561879,0.657722 c -0.224166,-0.118449 -0.485383,-0.39919 -0.564111,-0.606257 l -0.04974,-0.13083 -3.248911,-6.4e-4 -3.248911,-6.4e-4 -0.302357,-0.140761 c -0.251257,-0.116973 -0.289606,-0.153458 -0.2269,-0.215875 0.22122,-0.220199 2.020948,-0.337246 4.826204,-0.313867 1.818902,0.01513 2.311566,0.0046 2.311544,-0.05151 -4.4e-5,-0.113306 0.382593,-0.505118 0.568493,-0.582125 0.265521,-0.109984 0.704935,-0.04288 0.978504,0.149364 0.307485,0.216107 0.442492,0.458888 0.478986,0.861345 0.05923,0.65323 -0.393814,1.148862 -1.044688,1.142866 -0.154472,-0.0019 -0.361317,-0.04956 -0.478113,-0.111283 z m 0.797347,-0.716371 c 0.15732,-0.200003 0.148147,-0.326136 -0.03842,-0.528321 -0.222362,-0.240962 -0.407939,-0.270105 -0.598055,-0.09392 -0.306892,0.284417 -0.117305,0.771697 0.30025,0.771697 0.168663,0 0.245547,-0.03416 0.33623,-0.149458 z M 12.506092,28.579698 c -0.240507,-0.240507 -0.293359,-0.446237 -0.190825,-0.742813 0.228496,-0.660886 1.299291,-0.447267 1.299291,0.2592 0,0.194658 -0.03599,0.268676 -0.220226,0.452901 -0.186198,0.186203 -0.257193,0.220228 -0.459472,0.220228 -0.195623,0 -0.273803,-0.03453 -0.428768,-0.189516 z m 30.682996,0.08075 c -0.340116,-0.207401 -0.431938,-0.465357 -0.300183,-0.843321 0.174558,-0.500727 1.041111,-0.492124 1.281861,0.01272 0.120879,0.253482 0.06409,0.453412 -0.205334,0.72283 -0.251241,0.251246 -0.487291,0.284 -0.776344,0.107747 z m -0.746205,-1.201116 c -0.367283,-0.109965 -0.530052,-0.674948 -0.302131,-1.048707 0.05859,-0.0961 0.202568,-0.220283 0.319936,-0.275981 0.1822,-0.0865 0.246385,-0.09133 0.439068,-0.03369 0.317538,0.09514 0.478739,0.277586 0.526465,0.595843 0.03269,0.217954 0.01972,0.294868 -0.06987,0.414876 -0.247494,0.331492 -0.564458,0.452112 -0.913472,0.347623 z m 1.747516,-2.23e-4 c -0.254496,-0.05448 -0.625036,-0.441095 -0.625036,-0.652153 0,-0.325654 0.465928,-0.760494 0.814876,-0.760494 0.316923,0 0.659972,0.359262 0.659972,0.691163 0,0.51361 -0.366647,0.824878 -0.849812,0.721466 z M 11.715048,27.341624 c -0.42501,-0.334313 -0.346938,-0.957722 0.152267,-1.215873 0.316398,-0.163611 0.702156,-0.04427 0.898665,0.278004 0.154949,0.254123 0.141873,0.505099 -0.03741,0.718171 -0.296967,0.352932 -0.725928,0.445912 -1.013516,0.219698 z m 1.498303,-0.08975 c -0.387103,-0.363318 -0.333567,-0.808859 0.131245,-1.092255 0.661645,-0.403414 1.36846,0.316976 0.959792,0.978215 -0.14254,0.230641 -0.330216,0.326759 -0.637969,0.326759 -0.183543,0 -0.269354,-0.04028 -0.453068,-0.212719 z m 1.051758,-1.202583 c -0.06338,-0.02571 -0.210155,-0.151787 -0.326168,-0.280194 -0.249484,-0.276147 -0.275584,-0.517583 -0.09605,-0.888446 0.158763,-0.327956 0.308063,-0.448279 0.556168,-0.448205 0.460265,1.21e-4 0.701899,0.221026 0.774581,0.708064 0.09356,0.626935 -0.395947,1.116581 -0.908531,0.908781 z m 27.433795,-0.01782 c -0.226408,-0.11636 -0.362491,-0.353656 -0.389486,-0.679189 -0.03199,-0.385844 0.08848,-0.683747 0.338062,-0.835914 0.240552,-0.146664 0.361558,-0.144353 0.667896,0.01272 0.302607,0.155165 0.455836,0.420361 0.455836,0.788913 0,0.543191 -0.611696,0.950186 -1.072308,0.713466 z m -30.637856,-0.09003 c -0.413355,-0.219791 -0.448736,-0.866607 -0.06163,-1.126763 0.217295,-0.146042 0.758496,-0.179529 0.918308,-0.0568 0.220687,0.16944 0.297249,0.663643 0.145244,0.937573 -0.183804,0.331223 -0.633842,0.441736 -1.00192,0.24602 z m 1.667906,0.06608 c -0.0659,-0.0129 -0.19353,-0.100498 -0.283625,-0.194536 -0.143403,-0.149681 -0.163807,-0.213378 -0.163807,-0.511411 0,-0.331984 0.0066,-0.346658 0.266141,-0.59188 0.146377,-0.138311 0.24038,-0.251459 0.208897,-0.251459 -0.165909,0 0.400913,-0.986086 0.656366,-1.141864 0.173491,-0.105798 0.458481,-0.134515 0.697976,-0.07035 0.192832,0.0517 0.15768,0.108898 -0.188579,0.307008 -0.309372,0.177005 -0.67058,0.580761 -0.736622,0.823403 -0.02353,0.08641 0.03535,0.183882 0.226901,0.375421 0.238858,0.238864 0.258681,0.280658 0.258681,0.545427 0,0.349999 -0.182779,0.602432 -0.49999,0.69054 -0.213961,0.0594 -0.235401,0.06033 -0.442339,0.01968 z m 32.105161,-0.06979 c -0.247166,-0.150738 -0.361153,-0.334054 -0.361153,-0.580845 0,-0.440715 0.224374,-0.671773 0.652338,-0.671773 0.411559,0 0.822513,0.359781 0.822513,0.720092 0,0.15768 -0.04733,0.248192 -0.220227,0.421085 -0.188712,0.188708 -0.255682,0.22019 -0.467982,0.220014 -0.143718,-1.12e-4 -0.322388,-0.04576 -0.425489,-0.108592 z M 11.100722,24.322249 c -0.437991,-0.162173 -0.662764,-0.516442 -0.662764,-1.044615 0,-0.401956 0.143542,-0.652802 0.48384,-0.845548 0.269882,-0.152854 0.794864,-0.175101 1.047622,-0.04436 0.225647,0.116685 0.433693,0.404991 0.516991,0.716426 0.06205,0.232005 0.05554,0.304483 -0.05948,0.662177 -0.07103,0.220905 -0.179355,0.447091 -0.240719,0.502621 -0.147078,0.133103 -0.785354,0.164465 -1.085499,0.05337 z m 0.656094,-0.780338 c 0.217792,-0.25739 0.02755,-0.615269 -0.327072,-0.615269 -0.366429,0 -0.476355,0.408852 -0.183322,0.681853 0.149681,0.139452 0.359178,0.112119 0.510394,-0.06655 z m 9.978175,-0.211586 c -0.06289,-0.03982 -0.07288,-0.62753 -0.05673,-3.33884 l 0.01959,-3.290474 -0.152462,-0.08752 c -0.371041,-0.212904 -0.514185,-0.928681 -0.278221,-1.391207 0.361812,-0.709214 1.363145,-0.782073 1.794295,-0.13056 0.194441,0.293819 0.227247,0.552128 0.117896,0.928282 -0.09717,0.334267 -0.415316,0.688721 -0.677148,0.754442 -0.133068,0.03341 -0.134848,0.0439 -0.171434,1.008306 -0.02033,0.536006 -0.03704,2.014755 -0.03714,3.286102 l -1.73e-4,2.311544 -0.241081,-8.53e-4 c -0.132594,-4.27e-4 -0.27543,-0.02265 -0.31741,-0.04928 z m 0.676306,-7.319771 c 0.288835,-0.288844 0.172668,-0.685064 -0.200851,-0.685064 -0.235295,0 -0.36115,0.100647 -0.404998,0.323891 -0.03,0.152742 -0.008,0.209878 0.136687,0.354528 0.213557,0.213563 0.261562,0.214241 0.469162,0.0065 z m 11.832256,7.275341 c -0.0208,-0.02079 -0.03781,-1.48919 -0.03781,-3.263094 v -3.225273 l -0.155993,-0.05912 c -0.397559,-0.150618 -0.638158,-0.561632 -0.638158,-1.090176 0,-0.309885 0.02385,-0.395385 0.164395,-0.589402 0.167397,-0.231087 0.423928,-0.370307 0.818868,-0.4444 0.282234,-0.0529 0.75043,0.175427 0.942151,0.459547 0.164468,0.243746 0.221443,0.756596 0.118652,1.068049 -0.08095,0.245269 -0.365127,0.544843 -0.516854,0.544843 -0.106388,0 -0.109085,0.08205 -0.109085,3.318411 v 3.31842 h -0.274172 c -0.150794,0 -0.291189,-0.01708 -0.311987,-0.03787 z m 0.482423,-7.260138 c 0.14371,-0.130059 0.13826,-0.481265 -0.0095,-0.615027 -0.126625,-0.114597 -0.418961,-0.128194 -0.54299,-0.02525 -0.12223,0.101445 -0.101736,0.463779 0.03451,0.610016 0.137263,0.147341 0.373422,0.161133 0.518029,0.03026 z m -5.417396,5.531638 c -0.01957,-0.229676 -0.03945,-1.02194 -0.04415,-1.760586 l -0.0085,-1.342981 0.361918,-0.412926 c 0.199056,-0.227105 0.506197,-0.567238 0.682537,-0.755835 l 0.32062,-0.342917 -0.03068,-0.744744 c -0.01687,-0.409604 -0.01548,-0.805258 0.0031,-0.879239 0.01856,-0.07397 0.119944,-0.180884 0.225261,-0.237574 0.105319,-0.05671 0.362719,-0.29214 0.571999,-0.523208 l 0.380511,-0.420129 -0.09811,-0.149745 c -0.226348,-0.345451 -0.02802,-1.095216 0.351797,-1.32995 0.106418,-0.0658 0.329986,-0.13367 0.496819,-0.150896 0.819488,-0.08455 1.386113,0.65762 1.091334,1.429483 -0.174684,0.457403 -0.743176,0.815458 -1.190116,0.74957 -0.155719,-0.02292 -0.223632,0.02367 -0.642118,0.441031 l -0.468064,0.466712 v 0.738153 c 0,0.405994 -0.01516,0.813908 -0.03366,0.90649 -0.0235,0.117492 -0.183058,0.303768 -0.528401,0.616883 -0.272107,0.246708 -0.575527,0.5525 -0.674272,0.679543 l -0.17953,0.230975 -0.01915,1.540785 c -0.01053,0.847423 -0.03445,1.55608 -0.05317,1.574801 -0.01872,0.01875 -0.134467,0.04752 -0.25722,0.06395 l -0.223183,0.02998 -0.0356,-0.417604 z m 3.59248,-7.706755 c 0.243861,-0.243868 0.06444,-0.680703 -0.279571,-0.680703 -0.215046,0 -0.344403,0.133308 -0.344403,0.354928 0,0.360914 0.386855,0.562894 0.623974,0.325775 z m -13.897626,7.504357 c -0.171989,-0.06283 -0.339578,-0.266848 -0.375185,-0.456642 -0.04912,-0.261845 0.06497,-0.617756 0.233412,-0.72812 0.271298,-0.177766 0.700313,0.03221 0.822529,0.402485 0.07837,0.237481 0.01003,0.41158 -0.251832,0.641498 -0.204905,0.179909 -0.266549,0.200142 -0.428924,0.140779 z m 18.25966,-0.145039 c -0.285715,-0.190305 -0.41363,-0.485572 -0.335713,-0.774927 0.07534,-0.279786 0.220525,-0.36664 0.550651,-0.329432 0.442788,0.04993 0.644041,0.34547 0.49273,0.723638 -0.08227,0.20561 -0.363006,0.5091 -0.470939,0.5091 -0.02419,0 -0.13072,-0.05773 -0.236729,-0.128379 z M 26.62687,20.591078 c -0.03575,-0.05782 -0.12125,-1.172158 -0.134171,-1.74864 -0.0036,-0.162711 -0.08099,-0.286506 -0.428606,-0.686039 -0.233286,-0.268119 -0.519807,-0.536146 -0.636713,-0.595611 -0.116907,-0.05949 -0.223232,-0.114532 -0.236278,-0.122375 -0.01306,-0.0074 -0.02759,-0.407116 -0.03234,-0.887258 l -0.0086,-0.872993 -0.312112,-0.360691 c -0.171663,-0.198379 -0.369443,-0.443657 -0.439509,-0.545056 -0.11581,-0.167593 -0.154124,-0.184438 -0.421337,-0.185283 -0.583668,-0.0019 -1.003007,-0.433021 -1.003007,-1.031305 0,-0.525704 0.397143,-1.025624 0.871243,-1.096719 0.290674,-0.04362 0.425095,-0.01169 0.759697,0.18028 0.443118,0.254225 0.594385,0.841892 0.353403,1.37296 l -0.111991,0.2468 0.332962,0.363364 c 0.183129,0.199855 0.400005,0.41611 0.48195,0.48056 l 0.148988,0.117195 v 0.862171 0.862162 l 0.628673,0.651113 c 0.345771,0.358111 0.654223,0.714923 0.685449,0.792923 0.06157,0.153811 0.01537,1.302589 -0.07186,1.786843 -0.06409,0.355735 -0.312794,0.598479 -0.425818,0.415599 z m -2.305466,-6.830922 c 0.157838,-0.176652 0.159532,-0.250828 0.01005,-0.440854 -0.138013,-0.175445 -0.411113,-0.201944 -0.572848,-0.0556 -0.241954,0.218965 -0.01411,0.744177 0.291835,0.672738 0.07883,-0.01838 0.200749,-0.09774 0.270949,-0.176308 z m -6.140483,6.267638 c -0.210647,-0.06469 -0.330587,-0.155973 -0.416173,-0.31666 -0.09929,-0.186435 -0.08099,-0.309858 0.08142,-0.548871 0.270705,-0.398373 0.711013,-0.460623 1.045836,-0.147851 0.142356,0.132983 0.168149,0.199929 0.168149,0.436417 0,0.306312 -0.113568,0.464772 -0.414948,0.578961 -0.183892,0.0697 -0.231618,0.06952 -0.464289,-0.0019 z m 1.271269,-0.06692 c -0.36087,-0.24319 -0.367405,-0.71263 -0.01455,-1.045413 0.247907,-0.233815 0.421394,-0.278505 0.687658,-0.177162 0.282226,0.107413 0.466434,0.389983 0.466434,0.715498 0,0.218177 -0.02882,0.281531 -0.202577,0.445411 -0.171804,0.162034 -0.24377,0.191057 -0.473774,0.191057 -0.188398,0 -0.329815,-0.03954 -0.463193,-0.129391 z m 16.937459,0.04984 c -0.284282,-0.125483 -0.397076,-0.29664 -0.397076,-0.602525 0,-0.296279 0.13519,-0.49941 0.436803,-0.656339 0.269562,-0.14026 0.436635,-0.100433 0.70516,0.168094 0.233536,0.233537 0.247801,0.266068 0.247801,0.565206 0,0.302998 -0.0096,0.323937 -0.211704,0.461263 -0.236074,0.160419 -0.511808,0.183121 -0.780984,0.06432 z m 1.386603,-0.06432 c -0.406806,-0.299509 -0.286141,-0.863387 0.24375,-1.139061 0.209733,-0.109112 0.403119,-0.05049 0.609672,0.184735 0.139187,0.158526 0.170454,0.244007 0.168982,0.461988 -0.0011,0.147109 -0.0329,0.306925 -0.0709,0.35516 -0.244078,0.309727 -0.639665,0.366761 -0.951501,0.137178 z m -0.470987,-1.211759 c -0.487156,-0.32118 -0.493361,-0.876724 -0.0145,-1.297178 0.245801,-0.215809 0.50265,-0.239115 0.857351,-0.07778 0.288275,0.131126 0.355029,0.214185 0.400452,0.49824 0.03282,0.205238 0.01653,0.252666 -0.153506,0.446757 -0.226404,0.258439 -0.648112,0.537742 -0.811122,0.537222 -0.06409,-2.13e-4 -0.189496,-0.04845 -0.278684,-0.107282 z m -18.812357,0.01123 c -0.0468,-0.01689 -0.178506,-0.119943 -0.292686,-0.228934 -0.11418,-0.109 -0.235428,-0.180986 -0.269443,-0.159954 -0.04199,0.02589 -0.06185,-0.0697 -0.06185,-0.297829 0,-0.377045 0.109506,-0.57135 0.409393,-0.726432 0.403566,-0.20869 1.022779,-0.03406 1.199465,0.338287 0.174674,0.368097 0.08038,0.985204 -0.164912,1.079335 -0.109999,0.04223 -0.699721,0.03898 -0.81997,-0.0046 z m 11.74317,-4.699483 -0.121622,-2.709416 c 0,0 -0.141676,-0.06915 -0.28882,-0.137791 -0.39086,-0.182378 -0.576248,-0.486648 -0.576248,-0.945777 0,-0.2617895 0.03615,-0.4271457 0.138267,-0.6325231 0.183707,-0.369462 0.422596,-0.5062039 0.884987,-0.5065845 0.296873,-2.134e-4 0.386771,0.025524 0.595614,0.1706374 0.628146,0.4365289 0.661159,1.3368182 0.06747,1.8399592 -0.163183,0.138283 -0.133486,0.216246 -0.133486,0.216246 0,0 -0.144926,2.71285 -0.100075,2.709713 -0.0011,0.0098 -0.466083,-0.0046 -0.466083,-0.0046 z m 0.313473,-3.625131 c 0.151113,-0.15111 0.187464,-0.4319999 0.06833,-0.5279689 -0.039,-0.031464 -0.153154,-0.074715 -0.253679,-0.096192 -0.150166,-0.032113 -0.208361,-0.013458 -0.32617,0.1043222 -0.17597,0.1759647 -0.182758,0.3545937 -0.02005,0.5277837 0.159488,0.169764 0.356816,0.166822 0.531579,-0.0084 z m -4.501533,3.312387 c 0,0 -0.251679,-2.199546 -0.32718,-2.377776 -0.568406,-0.201599 -0.62644,-0.748818 -0.617783,-0.946102 0.01619,-0.36896 0.01406,-0.4256879 0.172525,-0.6239743 0.620583,-0.7765228 1.766768,-0.4237579 1.929491,0.5938473 0.04261,0.266467 -0.07861,0.672015 -0.2764,0.926444 -0.0822,0.105733 -0.272257,-0.02886 -0.344795,0.206269 -0.253647,0.822233 0.01126,2.197569 -0.0813,2.195044 -0.05025,-9.28e-4 -0.454561,0.02627 -0.454561,0.02627 z m 0.350379,-3.007096 c 0.197305,-0.155194 0.208855,-0.465376 0.02183,-0.586339 -0.238697,-0.1543953 -0.419511,-0.1670736 -0.548154,-0.03843 -0.159278,0.159277 -0.150591,0.407376 0.02073,0.592251 0.167435,0.180661 0.305929,0.189571 0.505584,0.03249 z"
           id="path15468-7" /><text
           xml:space="preserve"
           style="font-style:normal;font-variant:normal;font-weight:bold;font-stretch:normal;font-size:22.3382px;line-height:0;font-family:Tomorrow;-inkscape-font-specification:'Tomorrow Bold';fill:#07BEB8;fill-opacity:1;fill-rule:evenodd;stroke-width:0.466109"
           x="51.976566"
           y="26.581547"
           id="text471"><tspan
             id="tspan469"
             style="font-style:normal;font-variant:normal;font-weight:bold;font-stretch:normal;font-size:22.3382px;font-family:Tomorrow;-inkscape-font-specification:'Tomorrow Bold';fill:#07BEB8;fill-opacity:1;stroke-width:0.466111"
             x="51.976566"
             y="26.581547">Pépın Raısın</tspan></text><text
           xml:space="preserve"
           style="font-style:normal;font-variant:normal;font-weight:normal;font-stretch:normal;font-size:15.5511px;font-family:Tomorrow;-inkscape-font-specification:Tomorrow;fill:#07BEB8;fill-opacity:1;fill-rule:evenodd;stroke-width:2.59594"
           x="56.467239"
           y="43.841404"
           id="text4761-5"><tspan
             id="tspan4759-2"
             style="font-style:normal;font-variant:normal;font-weight:normal;font-stretch:normal;font-size:15.5511px;font-family:Tomorrow;-inkscape-font-specification:Tomorrow;fill:#07BEB8;fill-opacity:1;stroke-width:2.59594"
             x="56.467239"
             y="43.841404">From Root To Fruıt</tspan></text></g></g></g></svg>